<svg width="82" height="58" viewBox="0 0 82 58" fill="none" xmlns="http://www.w3.org/2000/svg">
<path d="M82 7.2027C82 5.29243 81.2407 3.46039 79.8891 2.10962C78.5375 0.758854 76.7044 0 74.793 0L7.20703 0C5.29652 0.00296322 3.4651 0.762769 2.11417 2.1129C0.763227 3.46302 0.002965 5.29334 0 7.2027L0 50.4189C0.00254244 52.3284 0.762669 54.159 2.1137 55.5092C3.46473 56.8594 5.29639 57.6191 7.20703 57.6216H74.793C76.7037 57.6195 78.5356 56.86 79.8868 55.5097C81.2379 54.1593 81.9979 52.3285 82 50.4189V7.2027ZM4.80469 8.18387L25.5673 28.8316L4.80469 49.441V8.18387ZM46.0962 32.3321C45.4268 33.0017 44.632 33.5329 43.7572 33.8953C42.8824 34.2577 41.9446 34.4442 40.9976 34.4442C40.0506 34.4442 39.1128 34.2577 38.238 33.8953C37.3632 33.5329 36.5683 33.0017 35.899 32.3321L8.21602 4.8018H73.784C72.3105 6.26475 46.9706 31.4566 46.0962 32.3321ZM28.9739 32.2153L32.5117 35.7222C34.7639 37.9703 37.8169 39.233 41 39.233C44.1831 39.233 47.2361 37.9703 49.4883 35.7222L53.0245 32.2009L73.7808 52.8198H8.21922L28.9739 32.2153ZM56.4327 28.8284L77.1953 8.18387V49.441L56.4327 28.8284Z" fill="white"/>
</svg>
