<svg width="83" height="58" viewBox="0 0 83 58" fill="none" xmlns="http://www.w3.org/2000/svg">
<path d="M82.2785 7.47614C82.2785 5.56586 81.5192 3.73383 80.1676 2.38306C78.816 1.03229 76.9829 0.273438 75.0715 0.273438L7.48553 0.273438C5.57502 0.276401 3.74361 1.03621 2.39267 2.38633C1.04173 3.73646 0.281468 5.56677 0.278503 7.47614L0.278503 50.6924C0.281046 52.6019 1.04117 54.4324 2.3922 55.7826C3.74323 57.1329 5.57489 57.8925 7.48553 57.8951H75.0715C76.9822 57.8929 78.8141 57.1334 80.1653 55.7831C81.5164 54.4328 82.2764 52.602 82.2785 50.6924V7.47614ZM5.08319 8.45731L25.8458 29.1051L5.08319 49.7144V8.45731ZM46.3747 32.6056C45.7054 33.2751 44.9105 33.8063 44.0357 34.1687C43.1609 34.5311 42.2231 34.7176 41.2761 34.7176C40.3291 34.7176 39.3913 34.5311 38.5165 34.1687C37.6417 33.8063 36.8469 33.2751 36.1775 32.6056L8.49452 5.07524H74.0625C72.5891 6.53819 47.2491 31.73 46.3747 32.6056ZM29.2524 32.4887L32.7902 35.9956C35.0424 38.2437 38.0954 39.5064 41.2785 39.5064C44.4616 39.5064 47.5146 38.2437 49.7668 35.9956L53.303 32.4743L74.0593 53.0933H8.49772L29.2524 32.4887ZM56.7112 29.1019L77.4738 8.45731V49.7144L56.7112 29.1019Z" fill="#BA0649"/>
</svg>
