<svg width="65" height="66" viewBox="0 0 65 66" fill="none" xmlns="http://www.w3.org/2000/svg">
<path d="M62.647 46.8948L54.7387 38.8954C53.2362 37.3155 51.4271 36.4806 49.5061 36.4806C47.585 36.4806 45.7776 37.3138 44.2339 38.8721L39.9502 43.2051C39.6948 43.0701 39.4427 42.9417 39.1956 42.8168L39.1577 42.7968C38.6867 42.5684 38.2275 42.3159 37.782 42.0401C33.5725 39.3354 29.7337 35.799 26.0596 31.241C24.361 29.0745 23.206 27.2579 22.374 25.4597C23.4713 24.4298 24.5158 23.3649 25.4912 22.3516C25.8817 21.9433 26.2935 21.5184 26.6939 21.1217C28.2822 19.5135 29.1224 17.6503 29.1224 15.7321C29.1224 13.814 28.2789 11.9274 26.6906 10.3326L22.7612 6.36285C22.3575 5.95455 21.9786 5.55958 21.5782 5.14294L21.4266 4.98629C20.5716 4.09302 19.6522 3.15309 18.7279 2.28316C17.2188 0.78994 15.418 0 13.52 0C11.622 0 9.81791 0.793273 8.25932 2.29649L3.31662 7.29611C1.41676 9.17873 0.258999 11.6963 0.0593913 14.3789C-0.200924 17.692 0.388904 21.1951 1.93926 25.3997C4.28374 31.8309 7.80624 37.7855 13.0323 44.1367C19.2522 51.7058 26.9982 57.8445 35.7522 62.142C39.1215 63.7568 43.6292 65.6534 48.6131 65.975H48.6675C48.969 65.9867 49.254 66 49.5621 66C53.078 66 55.9102 64.7701 58.22 62.2403C58.2675 62.1927 58.3105 62.1408 58.3485 62.0853C59.0612 61.2544 59.8163 60.4617 60.6106 59.7105L60.7952 59.5288C61.5531 58.7955 62.1511 58.1956 62.6783 57.6373C65.7873 54.3759 65.7708 50.0545 62.647 46.8948ZM13.52 4.93296C14.1098 4.93296 14.726 5.24794 15.3059 5.84289L15.3323 5.87122C16.0902 6.5795 16.8151 7.32278 17.5763 8.10772L17.9058 8.45269C18.1365 8.69267 18.3688 8.93099 18.6027 9.17097L19.2865 9.87425L23.2142 13.8473C23.8733 14.5139 24.2028 15.1589 24.2028 15.7521C24.2028 16.3454 23.8733 16.987 23.2142 17.6553C23.0034 17.8686 22.7941 18.0836 22.5832 18.3003C22.3723 18.5169 22.1862 18.7086 21.9852 18.9119L21.7067 19.1969C20.5897 20.3401 19.5352 21.4184 18.3869 22.4483L18.2847 22.5483C16.6981 24.1532 17.2468 25.8164 17.4247 26.358C17.4379 26.3963 17.4494 26.4297 17.4643 26.463L17.4857 26.5247C18.55 29.1078 20.0114 31.5243 22.2339 34.3424C26.2309 39.3304 30.452 43.2167 35.1294 46.2215C35.6232 46.535 36.1337 46.821 36.6584 47.0781L36.9516 47.2281C37.4459 47.4764 37.9155 47.7281 38.3274 47.9864L38.3998 48.028L38.4328 48.0464C38.469 48.0664 38.5053 48.088 38.5366 48.103C39.044 48.3768 39.6091 48.5231 40.1842 48.5297C41.12 48.5297 41.9767 48.143 42.7313 47.3797L47.6608 42.3918C48.2704 41.7768 48.9031 41.4502 49.4896 41.4502C50.259 41.4502 50.9032 42.0268 51.2195 42.3701L59.1888 50.4178C60.4459 51.6911 60.4294 52.9177 59.1278 54.2876C58.6039 54.8575 58.0619 55.3941 57.4045 56.0308L57.2579 56.1741C56.3265 57.0593 55.4411 57.9927 54.6053 58.9705C53.2576 60.4338 51.6561 61.1154 49.5687 61.1154C49.3627 61.1154 49.1321 61.102 48.936 61.0904C44.7561 60.8187 40.83 59.1522 37.8809 57.7323C29.7521 53.7472 22.5613 48.0477 16.792 41.0169C11.9499 35.109 8.68603 29.6144 6.52773 23.7265C5.2278 20.2118 4.71541 17.3737 4.91641 14.7955C5.02441 13.2715 5.68645 11.842 6.77486 10.7825L11.6681 5.83289C12.2695 5.2446 12.9104 4.93296 13.52 4.93296Z" fill="white"/>
</svg>
