<svg width="66" height="67" viewBox="0 0 66 67" fill="none" xmlns="http://www.w3.org/2000/svg">
<path d="M62.9255 47.8167L55.0172 39.8173C53.5147 38.2374 51.7056 37.4024 49.7846 37.4024C47.8635 37.4024 46.0561 38.2357 44.5124 39.7939L40.2287 44.1269C39.9733 43.9919 39.7213 43.8636 39.4741 43.7386L39.4362 43.7186C38.9652 43.4903 38.506 43.2378 38.0605 42.962C33.851 40.2572 30.0122 36.7208 26.3381 32.1628C24.6395 29.9963 23.4845 28.1798 22.6525 26.3816C23.7498 25.3517 24.7943 24.2868 25.7697 23.2735C26.1602 22.8652 26.572 22.4402 26.9724 22.0436C28.5607 20.4354 29.4009 18.5722 29.4009 16.654C29.4009 14.7358 28.5574 12.8493 26.9691 11.2544L23.0397 7.28473C22.636 6.87642 22.2571 6.48145 21.8567 6.06482L21.7051 5.90816C20.8501 5.0149 19.9307 4.07497 19.0064 3.20504C17.4973 1.71181 15.6965 0.921875 13.7985 0.921875C11.9005 0.921875 10.0964 1.71515 8.53782 3.21837L3.59513 8.21799C1.69527 10.1006 0.537502 12.6181 0.337895 15.3008C0.0775797 18.6139 0.667408 22.1169 2.21776 26.3216C4.56225 32.7528 8.08474 38.7073 13.3108 45.0585C19.5307 52.6277 27.2767 58.7663 36.0307 63.0638C39.4 64.6787 43.9077 66.5752 48.8916 66.8969H48.946C49.2475 66.9085 49.5325 66.9219 49.8406 66.9219C53.3565 66.9219 56.1887 65.692 58.4985 63.1622C58.546 63.1146 58.589 63.0627 58.627 63.0072C59.3397 62.1763 60.0948 61.3836 60.8892 60.6324L61.0737 60.4507C61.8316 59.7174 62.4296 59.1175 62.9568 58.5592C66.0658 55.2978 66.0493 50.9764 62.9255 47.8167ZM13.7985 5.85483C14.3883 5.85483 15.0045 6.16981 15.5844 6.76477L15.6108 6.7931C16.3687 7.50138 17.0936 8.24465 17.8548 9.02959L18.1843 9.37457C18.415 9.61455 18.6473 9.85286 18.8812 10.0928L19.565 10.7961L23.4928 14.7692C24.1518 15.4358 24.4813 16.0807 24.4813 16.674C24.4813 17.2673 24.1518 17.9089 23.4928 18.5772C23.2819 18.7905 23.0726 19.0055 22.8617 19.2222C22.6508 19.4388 22.4647 19.6305 22.2637 19.8338L21.9852 20.1188C20.8682 21.262 19.8137 22.3403 18.6654 23.3702L18.5632 23.4702C16.9766 25.075 17.5253 26.7383 17.7032 27.2799C17.7164 27.3182 17.7279 27.3515 17.7428 27.3849L17.7642 27.4465C18.8285 30.0297 20.2899 32.4462 22.5125 35.2643C26.5094 40.2522 30.7305 44.1386 35.4079 47.1434C35.9017 47.4569 36.4122 47.7429 36.9369 48L37.2301 48.15C37.7244 48.3983 38.194 48.6499 38.6059 48.9082L38.6783 48.9499L38.7113 48.9682C38.7475 48.9882 38.7838 49.0099 38.8151 49.0249C39.3225 49.2987 39.8876 49.445 40.4627 49.4515C41.3985 49.4515 42.2552 49.0649 43.0098 48.3016L47.9393 43.3137C48.5489 42.6987 49.1816 42.3721 49.7681 42.3721C50.5375 42.3721 51.1817 42.9487 51.498 43.292L59.4673 51.3397C60.7244 52.613 60.7079 53.8395 59.4063 55.2094C58.8824 55.7794 58.3404 56.316 57.683 56.9526L57.5364 57.096C56.605 57.9811 55.7196 58.9145 54.8838 59.8924C53.5361 61.3556 51.9346 62.0372 49.8472 62.0372C49.6412 62.0372 49.4106 62.0239 49.2145 62.0122C45.0346 61.7406 41.1085 60.0741 38.1594 58.6542C30.0307 54.6691 22.8398 48.9695 17.0706 41.9388C12.2284 36.0309 8.96454 30.5363 6.80623 24.6484C5.5063 21.1337 4.99391 18.2956 5.19491 15.7174C5.30291 14.1934 5.96496 12.7638 7.05336 11.7044L11.9466 6.75477C12.548 6.16648 13.1889 5.85483 13.7985 5.85483Z" fill="#BA0649"/>
</svg>
