<svg width="73" height="74" viewBox="0 0 73 74" fill="none" xmlns="http://www.w3.org/2000/svg">
<path fill-rule="evenodd" clip-rule="evenodd" d="M62.3541 10.6531C58.9872 7.26601 54.9813 4.58035 50.5685 2.75171C46.1557 0.923077 41.4237 -0.0121812 36.6467 0.000119782C16.6148 0.000119782 0.313141 16.2937 0.305112 36.3202C0.298705 42.695 1.97385 48.9589 5.16167 54.4803L0 73.303L19.2702 68.2517C24.5986 71.1522 30.5691 72.672 36.6364 72.6725H36.6513C56.6809 72.6725 72.9848 56.3777 72.9929 36.35C73.0073 31.5765 72.0745 26.8475 70.2484 22.4366C68.4222 18.0257 65.7391 14.0207 62.3541 10.6531ZM36.6467 66.5388H36.6341C31.2258 66.5384 25.9171 65.0848 21.2638 62.3302L20.158 61.6801L8.72551 64.6735L11.7778 53.5322L11.0586 52.3857C8.03417 47.5739 6.43321 42.0051 6.44062 36.3225C6.4475 19.677 19.9974 6.13487 36.6582 6.13487C44.67 6.13882 52.3522 9.32366 58.0148 14.9888C63.6773 20.6539 66.8564 28.3353 66.8528 36.3432C66.8447 52.9899 53.2959 66.5343 36.6467 66.5343V66.5388ZM53.2145 43.9271C52.3072 43.4685 47.8429 41.2776 47.0102 40.9738C46.1774 40.6699 45.5718 40.5152 44.9673 41.4323C44.3628 42.3495 42.6216 44.3845 42.0917 44.9864C41.5618 45.5883 41.033 45.6674 40.1245 45.2157C39.2161 44.764 36.2911 43.8021 32.8225 40.7101C30.1235 38.3025 28.3009 35.332 27.7755 34.424C27.2502 33.516 27.7755 33.0711 28.1735 32.5713C29.1565 31.3514 30.1407 30.072 30.4435 29.4666C30.7463 28.8613 30.5949 28.3305 30.3678 27.8765C30.1407 27.4225 28.3249 22.9559 27.5679 21.1376C26.8315 19.3686 26.0836 19.607 25.525 19.5795C24.9962 19.5531 24.3906 19.5474 23.785 19.5474C23.1793 19.5474 22.1952 19.7767 21.3636 20.6836C20.532 21.5904 18.1851 23.7882 18.1851 28.2502C18.1851 32.7123 21.4393 37.0333 21.8935 37.6398C22.3477 38.2463 28.2963 47.4123 37.4049 51.3436C39.0952 52.0721 40.8232 52.71 42.5815 53.2547C44.7608 53.9426 46.736 53.8486 48.3006 53.6147C50.0452 53.3545 53.6733 51.4192 54.4304 49.2994C55.1874 47.1796 55.1874 45.3624 54.9603 44.9841C54.7332 44.6058 54.1275 44.3776 53.2191 43.9236L53.2145 43.9271Z" fill="white"/>
</svg>
