<svg width="90" height="90" viewBox="0 0 90 90" fill="none" xmlns="http://www.w3.org/2000/svg">
<path d="M90 22.1989C89.9443 22.4303 89.893 22.6575 89.8288 22.8889C89.6862 23.4831 89.4057 24.0354 89.01 24.5007C88.6143 24.9661 88.1146 25.3315 87.5514 25.5673C87.3031 25.6745 87.0462 25.773 86.7936 25.8716C85.9118 26.2187 85.9118 26.2187 85.9974 27.1573C86.1818 29.1374 86.1171 31.1329 85.8048 33.097C85.7577 33.3798 85.8048 33.5255 86.0959 33.6455C86.524 33.8169 86.9777 34.0184 87.4058 34.2326C88.3069 34.657 89.0104 35.4121 89.3707 36.3415C89.7309 37.271 89.7201 38.3035 89.3407 39.2252C88.7214 40.748 88.0636 42.2522 87.3673 43.7379C86.9561 44.6573 86.2019 45.3793 85.2659 45.7493C84.3299 46.1193 83.2865 46.108 82.3587 45.7178C81.9306 45.5507 81.5026 45.375 81.0745 45.1693C81.0264 45.1364 80.972 45.1137 80.9149 45.1026C80.8577 45.0915 80.7989 45.0922 80.7419 45.1046C80.685 45.117 80.6313 45.141 80.5839 45.1749C80.5366 45.2089 80.4967 45.2522 80.4666 45.3021C79.113 47.0283 77.5285 48.5598 75.7577 49.8533C75.5094 50.0333 75.5094 50.1962 75.6079 50.4576C75.9332 51.3147 76.3613 52.1075 76.3313 53.0546C76.2842 54.7002 75.5479 55.9387 74.0539 56.5987C72.4786 57.2972 70.8604 57.9144 69.2337 58.4886C68.3137 58.8007 67.3098 58.7534 66.4231 58.3561C65.5364 57.9587 64.8324 57.2407 64.452 56.3459C64.2508 55.8916 64.0753 55.4288 63.9084 54.9616C63.896 54.9082 63.8729 54.8579 63.8404 54.8137C63.8079 54.7695 63.7668 54.7325 63.7195 54.7048C63.6722 54.6771 63.6197 54.6594 63.5654 54.6527C63.511 54.646 63.4558 54.6505 63.4032 54.6659C61.2609 54.9326 59.0915 54.8922 56.9606 54.5459C56.8892 54.5227 56.8137 54.5149 56.7391 54.523C56.6644 54.5312 56.5924 54.5551 56.5276 54.5931C56.4629 54.6312 56.407 54.6826 56.3635 54.7439C56.3201 54.8052 56.2902 54.875 56.2757 54.9488C56.1238 55.367 55.945 55.775 55.7406 56.1702C55.3172 57.0647 54.5664 57.7621 53.6436 58.1178C52.7209 58.4736 51.6968 58.4606 50.7834 58.0815C49.248 57.4501 47.7297 56.7844 46.2286 56.0844C45.3084 55.6566 44.592 54.8852 44.2328 53.9353C43.8735 52.9854 43.9 51.9325 44.3065 51.0018C44.5162 50.4833 44.9486 49.909 44.8502 49.4548C44.7517 49.0005 44.0625 48.7519 43.6858 48.3577C42.5171 47.1106 41.357 45.8549 40.2269 44.5736C40.1524 44.4448 40.0305 44.3502 39.8873 44.3102C39.7441 44.2702 39.591 44.2878 39.4606 44.3593C38.8517 44.6299 38.218 44.8408 37.5685 44.9893C36.7286 45.1518 35.8584 45.022 35.1023 44.6213C34.3463 44.2206 33.7498 43.5732 33.4118 42.7865C32.7311 41.2266 32.1061 39.6195 31.524 37.991C31.2035 37.0661 31.2463 36.0538 31.6437 35.1593C32.0412 34.2648 32.7636 33.5551 33.6644 33.1741C34.1181 32.977 34.5933 32.8227 35.0385 32.6084C35.1101 32.5669 35.1706 32.5085 35.2146 32.4383C35.2586 32.3681 35.2848 32.2882 35.2911 32.2056C35.0375 30.008 35.0865 27.7859 35.4366 25.6016C35.4547 25.5451 35.4609 25.4854 35.4547 25.4263C35.4485 25.3673 35.4302 25.3102 35.4008 25.2586C35.3714 25.207 35.3317 25.1621 35.284 25.1267C35.2364 25.0914 35.1819 25.0663 35.1241 25.0531C34.696 24.8902 34.268 24.6974 33.8399 24.496C32.9281 24.0737 32.2155 23.3138 31.8522 22.3762C31.4889 21.4385 31.5032 20.3963 31.8921 19.469C32.5399 17.9663 33.2035 16.4763 33.8827 14.9993C34.3007 14.0646 35.0699 13.3325 36.0236 12.9619C36.9772 12.5912 38.0383 12.6119 38.9769 13.0194C39.4948 13.2293 40.0685 13.675 40.5222 13.5765C40.976 13.4779 41.2243 12.7879 41.6181 12.428C42.8467 11.2623 44.0839 10.1052 45.3553 8.99955C45.6935 8.70813 45.7834 8.511 45.5907 8.11244C45.344 7.56774 45.1491 7.00098 45.0085 6.41967C44.6704 4.8726 45.2911 3.12411 46.6952 2.44271C48.5801 1.5109 50.5389 0.736869 52.5514 0.128539C54.3022 -0.385722 56.0745 0.689941 56.8322 2.36986C57.0173 2.77348 57.1802 3.18693 57.3202 3.60837C57.4272 3.95121 57.607 4.03692 57.958 4.03692C59.0839 3.97264 60.214 3.89979 61.3399 3.92122C62.3801 3.94693 63.4161 4.10121 64.4563 4.16549C64.5458 4.16287 64.6336 4.1399 64.713 4.09832C64.7923 4.05674 64.8612 3.99765 64.9144 3.9255C65.1413 3.49695 65.2996 3.0684 65.5051 2.63985C65.9147 1.72935 66.6611 1.01337 67.5872 0.64251C68.5133 0.271652 69.547 0.274829 70.4709 0.651372C72.0377 1.28134 73.5916 1.96274 75.1156 2.69127C76.0074 3.11901 76.7008 3.87368 77.0522 4.79905C77.4036 5.72442 77.3862 6.74964 77.0034 7.66247C76.8279 8.09102 76.601 8.51957 76.4512 8.9824C76.4337 9.05883 76.4327 9.13809 76.4482 9.21493C76.4637 9.29177 76.4954 9.36443 76.5411 9.4281C78.2673 10.8138 79.8044 12.4203 81.113 14.2064C81.2971 14.4593 81.464 14.4507 81.7166 14.3521C82.6199 13.9879 83.5017 13.5593 84.5205 13.6365C86.0103 13.7436 87.1746 14.4293 87.7825 15.7792C88.5317 17.4291 89.1267 19.1476 89.7774 20.8361C89.8673 21.1175 89.9416 21.4036 90 21.6932V22.1989ZM80.7834 17.8234C80.5303 17.8178 80.2826 17.7491 80.0628 17.6233C79.843 17.4976 79.6581 17.3189 79.5248 17.1034C77.9602 14.7201 75.969 12.6468 73.6515 10.988C72.9366 10.4738 72.7954 9.85665 73.1421 9.0424C73.4889 8.22815 73.8313 7.47819 74.1652 6.68966C74.4692 5.98255 74.2851 5.51543 73.5702 5.1983C72.2431 4.60975 70.9132 4.02693 69.5805 3.44981C68.8613 3.14125 68.4075 3.32124 68.0907 4.02835C67.774 4.73546 67.4187 5.56685 67.0762 6.32967C67.0152 6.51764 66.9176 6.69163 66.789 6.8416C66.6604 6.99157 66.5034 7.11454 66.3271 7.20341C66.1507 7.29227 65.9585 7.34527 65.7616 7.35933C65.5647 7.37339 65.3669 7.34825 65.1798 7.28534C62.4764 6.72318 59.6922 6.66941 56.9692 7.12678C56.5822 7.23038 56.17 7.1786 55.8206 6.98248C55.4712 6.78636 55.2121 6.4614 55.0984 6.07683C54.7859 5.30115 54.4906 4.5169 54.1781 3.73694C53.8656 2.95698 53.4503 2.82413 52.714 3.10697C51.3584 3.63552 50.0057 4.1712 48.6558 4.71404C47.9281 5.00545 47.7269 5.45543 48.0008 6.17968C48.3048 6.97678 48.6301 7.7696 48.9341 8.57099C49.1045 8.9055 49.1377 9.29344 49.0266 9.6521C48.9154 10.0108 48.6687 10.3118 48.339 10.4909C45.9779 12.0511 43.9221 14.0308 42.2731 16.3321C42.0789 16.6533 41.7674 16.8862 41.4046 16.9814C41.0418 17.0766 40.6562 17.0266 40.3296 16.842C39.5591 16.5163 38.7971 16.1692 38.0265 15.8349C37.256 15.5007 36.8065 15.6892 36.4854 16.4092C35.8947 17.7377 35.3125 19.0705 34.7389 20.4076C34.4349 21.119 34.619 21.5904 35.321 21.9032C36.0231 22.2161 36.8279 22.5632 37.5728 22.8975C38.4632 23.296 38.7885 23.8446 38.5959 24.7745C38.0277 27.5142 37.9654 30.3348 38.4118 33.097C38.5616 34.0526 38.232 34.5669 37.3245 34.9269C36.5625 35.2312 35.7962 35.5226 35.0342 35.8311C34.2722 36.1397 34.131 36.5597 34.3964 37.2582C34.9215 38.6296 35.4552 39.9995 35.9974 41.368C36.2885 42.0923 36.7337 42.2765 37.4657 42.0023C38.1978 41.728 39.0282 41.3894 39.8073 41.0894C40.6635 40.768 41.2757 40.9309 41.7722 41.6851C43.3237 44.0364 45.2926 46.083 47.5813 47.7234C48.3219 48.2548 48.4632 48.8976 48.095 49.7547C47.7568 50.539 47.4015 51.319 47.0676 52.1075C46.9955 52.2312 46.9522 52.3696 46.9409 52.5123C46.9296 52.6551 46.9507 52.7986 47.0026 52.9321C47.0544 53.0655 47.1357 53.1856 47.2404 53.2832C47.345 53.3809 47.4704 53.4536 47.607 53.496C48.9826 54.1131 50.3596 54.7188 51.738 55.3131C51.8649 55.389 52.0076 55.4346 52.155 55.4462C52.3024 55.4578 52.4505 55.4351 52.5877 55.3799C52.7249 55.3248 52.8475 55.2385 52.9459 55.1281C53.0443 55.0176 53.1158 54.8858 53.1549 54.7431C53.4889 54.0103 53.8056 53.2731 54.131 52.536C54.5591 51.5161 55.1241 51.2204 56.2029 51.4475C58.8725 52.0006 61.6211 52.0558 64.3108 51.6104C65.2568 51.4604 65.8091 51.7647 66.1644 52.6518C66.4811 53.4446 66.7765 54.2502 67.0976 55.0388C67.1342 55.1776 67.2015 55.3064 67.2945 55.4158C67.3874 55.5251 67.5037 55.6122 67.6347 55.6706C67.7658 55.729 67.9082 55.7572 68.0516 55.7532C68.195 55.7492 68.3356 55.713 68.4632 55.6473C69.8673 55.1131 71.2671 54.5645 72.6627 54.0017C72.8061 53.9664 72.9395 53.8984 73.0524 53.803C73.1653 53.7077 73.2546 53.5875 73.3135 53.4518C73.3723 53.3162 73.3991 53.1687 73.3916 53.021C73.3842 52.8733 73.3427 52.7294 73.2705 52.6003C72.9752 51.8161 72.6584 51.0404 72.3587 50.2604C72.0163 49.3648 72.1918 48.7348 72.9794 48.212C75.2979 46.6746 77.3172 44.7271 78.9383 42.4651C79.4948 41.6937 80.137 41.5437 81.006 41.9208C81.7722 42.2551 82.5385 42.5979 83.3091 42.9236C83.4385 43.0037 83.5849 43.0523 83.7364 43.0656C83.888 43.0789 84.0406 43.0566 84.182 43.0003C84.3234 42.9441 84.4497 42.8556 84.5508 42.7419C84.652 42.6281 84.7252 42.4922 84.7645 42.3451C85.361 41.0052 85.9489 39.6567 86.5282 38.2996C86.6066 38.1711 86.6541 38.0263 86.667 37.8763C86.6799 37.7264 86.6579 37.5755 86.6027 37.4356C86.5476 37.2956 86.4607 37.1703 86.349 37.0697C86.2372 36.969 86.1037 36.8956 85.9589 36.8554C85.1969 36.5082 84.4221 36.1868 83.6601 35.844C82.774 35.4497 82.5342 34.8626 82.6669 33.8984C82.8904 32.446 83.0333 30.9824 83.095 29.5143C83.0868 28.2653 82.9953 27.0183 82.821 25.7816C82.7055 24.7574 82.988 24.1874 83.9426 23.8103C84.7217 23.4974 85.5094 23.2103 86.2799 22.8889C86.4136 22.8513 86.5373 22.7849 86.6426 22.6943C86.7478 22.6037 86.8319 22.4912 86.889 22.3645C86.9462 22.2379 86.9749 22.1003 86.9732 21.9614C86.9715 21.8224 86.9394 21.6856 86.8793 21.5604C86.3399 20.1319 85.7848 18.7148 85.214 17.3091C85.1775 17.1718 85.1106 17.0445 85.0183 16.9366C84.926 16.8287 84.8106 16.743 84.6807 16.6858C84.5508 16.6285 84.4097 16.6013 84.2678 16.6061C84.126 16.6109 83.987 16.6476 83.8613 16.7135C83.0779 17.0049 82.3031 17.322 81.5197 17.6177C81.2799 17.7077 81.0274 17.7548 80.7834 17.8234Z" fill="#BA0649"/>
<path d="M0 63.7511C0.0385999 63.656 0.0714784 63.5587 0.0984589 63.4597C0.211067 62.6102 0.637404 61.8337 1.29347 61.2832C1.94954 60.7327 2.78776 60.4481 3.64298 60.4856C4.49914 60.4856 4.47346 60.4856 4.7774 59.667C5.30822 58.2785 5.89041 56.9115 6.45548 55.5358L6.69092 55.4201C6.42736 55.2602 6.17686 55.0796 5.94178 54.8801C5.59089 54.5619 5.31045 54.1737 5.11852 53.7405C4.9266 53.3072 4.82744 52.8385 4.82744 52.3645C4.82744 51.8906 4.9266 51.4219 5.11852 50.9886C5.31045 50.5553 5.59089 50.1671 5.94178 49.8489C6.74657 49.0347 7.55993 48.2204 8.37329 47.4148C8.69118 47.0696 9.07707 46.7941 9.50662 46.6057C9.93616 46.4173 10.4 46.32 10.869 46.32C11.338 46.32 11.8019 46.4173 12.2314 46.6057C12.6609 46.7941 13.0468 47.0696 13.3647 47.4148C14.0497 48.079 14.0283 48.0319 14.9144 47.6376C16.1173 47.1062 17.3459 46.6348 18.5745 46.1763C18.7119 46.1466 18.8339 46.0683 18.9181 45.9557C19.0023 45.843 19.0429 45.7037 19.0325 45.5634C19.0213 44.9385 19.0992 44.3151 19.2637 43.7121C19.4905 43.0849 19.9047 42.5427 20.45 42.1594C20.9953 41.776 21.6453 41.57 22.3116 41.5693C23.5274 41.5693 24.7431 41.5693 25.9589 41.5693C28.0522 41.5693 29.4563 42.9407 29.5377 45.0492C29.5805 46.022 29.5976 45.9791 30.5137 46.3348C31.7209 46.8062 32.9067 47.3333 34.0796 47.8862C34.4092 48.0405 34.5848 48.0362 34.8202 47.7748C35.4058 47.0235 36.2554 46.5238 37.1961 46.3777C37.6802 46.2992 38.1758 46.333 38.6448 46.4764C39.1139 46.6198 39.5438 46.869 39.9015 47.2048C40.899 48.1433 41.875 49.1075 42.8082 50.1104C43.4069 50.7566 43.7291 51.6117 43.7059 52.4927C43.6827 53.3738 43.3159 54.2107 42.6841 54.8244C41.9649 55.5787 42.0077 55.5572 42.4272 56.5001C42.9452 57.67 43.4075 58.8699 43.8442 60.0699C43.8767 60.2134 43.9602 60.3403 44.079 60.427C44.1979 60.5137 44.3441 60.5543 44.4906 60.5413C45.1539 60.5435 45.8127 60.6505 46.4426 60.8584C47.0448 61.0926 47.561 61.5054 47.9222 62.0416C48.2833 62.5778 48.4721 63.2116 48.4632 63.8583C48.506 65.1439 48.4846 66.4296 48.4632 67.7152C48.4488 68.5988 48.0912 69.4419 47.4663 70.066C46.8413 70.69 45.9982 71.0458 45.1156 71.0579C44.0154 71.0579 44.0539 71.0922 43.6687 72.0993C43.2406 73.265 42.7312 74.4135 42.1832 75.5277C42.132 75.5969 42.0953 75.6757 42.0753 75.7594C42.0553 75.8431 42.0524 75.93 42.0668 76.0149C42.0812 76.0997 42.1126 76.1808 42.1591 76.2532C42.2056 76.3256 42.2662 76.3879 42.3373 76.4362C42.7633 76.7755 43.1049 77.209 43.3351 77.7028C43.5654 78.1966 43.6781 78.7371 43.6644 79.2818C43.6477 80.1316 43.3043 80.9421 42.7055 81.5446C41.8193 82.4488 40.9332 83.3573 40.0171 84.2316C39.7046 84.5453 39.3333 84.7942 38.9245 84.964C38.5157 85.1338 38.0774 85.2212 37.6348 85.2212C37.1923 85.2212 36.754 85.1338 36.3452 84.964C35.9364 84.7942 35.5651 84.5453 35.2526 84.2316C35.0056 83.9695 34.7741 83.6934 34.5591 83.4045L34.4991 83.6188C32.9281 84.2273 31.3527 84.8273 29.7902 85.4572C29.6575 85.5087 29.5591 85.7572 29.5377 85.9244C29.5029 86.4861 29.4371 87.0455 29.3408 87.6C29.1566 88.2664 28.7635 88.856 28.2194 89.2819C27.6753 89.7078 27.0089 89.9475 26.3185 89.9656C24.9315 90.0042 23.5445 90.0085 22.1575 89.9656C21.3193 89.9278 20.5267 89.5726 19.9402 88.9719C19.3537 88.3712 19.017 87.5698 18.9983 86.73C18.9598 85.5515 18.9469 85.5901 17.8296 85.1615C16.5454 84.6687 15.2611 84.103 13.8613 83.5073C13.6777 83.7472 13.482 83.9775 13.2748 84.1973C12.9608 84.5216 12.5848 84.7794 12.1694 84.9554C11.7539 85.1315 11.3073 85.2222 10.8562 85.2222C10.405 85.2222 9.95844 85.1315 9.54296 84.9554C9.12749 84.7794 8.75156 84.5216 8.4375 84.1973C7.54994 83.3402 6.67808 82.4674 5.82192 81.5789C5.49896 81.2635 5.2423 80.8866 5.06707 80.4704C4.89183 80.0542 4.80155 79.6071 4.80155 79.1554C4.80155 78.7037 4.89183 78.2566 5.06707 77.8404C5.2423 77.4242 5.49896 77.0473 5.82192 76.7319C6.53253 75.9863 6.48973 76.0077 6.06592 75.052C5.54366 73.8821 5.07705 72.6864 4.64041 71.4822C4.61418 71.3365 4.53273 71.2065 4.41309 71.1195C4.29344 71.0325 4.14483 70.9951 3.99829 71.0151C3.45334 71.0328 2.90862 70.9736 2.38014 70.8394C1.77991 70.6596 1.24513 70.3084 0.841355 69.8288C0.437584 69.3492 0.182376 68.7621 0.107021 68.1395C0.0798959 68.0059 0.0441474 67.8742 0 67.7452L0 63.7511ZM24.2851 44.4963C23.7414 44.4963 23.1935 44.4963 22.6455 44.4963C22.0976 44.4963 21.9692 44.5992 21.9649 45.1949C21.9606 45.7906 21.9649 46.3605 21.9649 46.9434C21.9649 47.929 21.5753 48.4604 20.625 48.6576C18.5334 49.1151 16.5411 49.9454 14.7431 51.1089C14.4334 51.3507 14.0409 51.4607 13.6507 51.415C13.2605 51.3693 12.904 51.1715 12.6584 50.8646C12.1961 50.4103 11.7295 49.9518 11.28 49.4847C10.9931 49.1804 10.7491 49.1933 10.458 49.4847C9.65753 50.3032 8.84418 51.1132 8.02654 51.9231C7.95497 51.9693 7.89612 52.0328 7.85537 52.1077C7.81461 52.1825 7.79326 52.2664 7.79326 52.3517C7.79326 52.4369 7.81461 52.5208 7.85537 52.5957C7.89612 52.6706 7.95497 52.734 8.02654 52.7802C8.50171 53.2474 8.97688 53.7188 9.44349 54.1987C9.73141 54.4382 9.91544 54.78 9.95695 55.1523C9.99846 55.5247 9.89421 55.8987 9.6661 56.1958C8.47145 58.0368 7.62545 60.0822 7.17038 62.2298C7.11566 62.5821 6.93195 62.9014 6.655 63.1256C6.37805 63.3498 6.02768 63.4628 5.67209 63.4426C5.00428 63.4426 4.33647 63.4426 3.66866 63.4426C3.24058 63.4426 3.01798 63.614 3.01798 64.0511C3.01798 65.1939 3.01798 66.3367 3.01798 67.4795C3.01798 67.9081 3.24914 68.0795 3.67295 68.0709C4.31935 68.0709 4.95719 68.0709 5.62072 68.0709C5.98451 68.0459 6.34456 68.1576 6.63039 68.3843C6.91621 68.611 7.10725 68.9363 7.1661 69.2966C7.61707 71.4306 8.45419 73.4639 9.63613 75.2963C10.137 76.0763 10.0642 76.7062 9.40068 77.3791C8.9726 77.8076 8.54452 78.2619 8.09075 78.6647C7.74829 78.9861 7.70976 79.2647 8.06507 79.6118C8.87842 80.3961 9.67466 81.2017 10.4623 82.0074C10.507 82.0764 10.5682 82.1331 10.6403 82.1724C10.7125 82.2116 10.7933 82.2322 10.8754 82.2322C10.9575 82.2322 11.0384 82.2116 11.1105 82.1724C11.1827 82.1331 11.2439 82.0764 11.2885 82.0074C11.7509 81.5274 12.226 81.056 12.7012 80.5889C12.9405 80.2997 13.2824 80.1146 13.6551 80.0722C14.0278 80.0299 14.4024 80.1336 14.7003 80.3618C16.5419 81.5538 18.584 82.4017 20.7277 82.8645C21.0902 82.9244 21.4174 83.1174 21.6454 83.4059C21.8734 83.6943 21.9858 84.0575 21.9606 84.4244C21.9606 85.0758 21.9606 85.7101 21.9606 86.3786C21.9606 86.8372 22.1404 87.0257 22.6027 87.0215C23.6986 87.0215 24.7945 87.0215 25.8904 87.0215C26.4683 87.0215 26.5668 86.9186 26.5796 86.3229C26.5796 85.6544 26.5796 84.9858 26.5796 84.3173C26.5718 83.9786 26.686 83.6485 26.9014 83.3872C27.1168 83.1259 27.4189 82.951 27.7526 82.8945C29.9153 82.4326 31.9755 81.5785 33.8313 80.3746C34.1236 80.1545 34.4883 80.0533 34.852 80.0915C35.2158 80.1297 35.5516 80.3043 35.792 80.5803C36.2714 81.0432 36.7466 81.5189 37.2089 81.9988C37.2576 82.067 37.3219 82.1225 37.3963 82.1608C37.4708 82.1991 37.5533 82.219 37.637 82.219C37.7207 82.219 37.8032 82.1991 37.8776 82.1608C37.9521 82.1225 38.0163 82.067 38.0651 81.9988C38.857 81.1932 39.6575 80.3961 40.4623 79.599C40.533 79.5491 40.5907 79.483 40.6305 79.4062C40.6703 79.3294 40.691 79.2441 40.691 79.1575C40.691 79.071 40.6703 78.9857 40.6305 78.9089C40.5907 78.8321 40.533 78.766 40.4623 78.7161C39.9743 78.2404 39.482 77.7605 39.0111 77.2633C38.7535 77.0284 38.5915 76.7066 38.5559 76.3595C38.5204 76.0124 38.6139 75.6644 38.8185 75.382C40.0219 73.5267 40.8777 71.4675 41.3442 69.3052C41.3995 68.9344 41.5954 68.5993 41.8912 68.3694C42.187 68.1395 42.5599 68.0326 42.9324 68.0709H44.7817C45.3681 68.0709 45.5009 67.9338 45.5009 67.3381C45.5009 66.2924 45.5009 65.2468 45.5009 64.2011C45.5009 63.5669 45.3639 63.434 44.7046 63.4297C44.0454 63.4254 43.506 63.4297 42.9067 63.4297C42.5342 63.4641 42.1628 63.3531 41.8701 63.1199C41.5774 62.8867 41.3859 62.5494 41.3356 62.1784C40.8811 60.0434 40.0395 58.0099 38.8527 56.1786C38.6195 55.8729 38.5149 55.4879 38.5613 55.106C38.6077 54.724 38.8014 54.3754 39.101 54.1345C39.5291 53.6802 39.9872 53.2302 40.4452 52.7931C40.5212 52.7432 40.5835 52.6751 40.6267 52.5951C40.6698 52.515 40.6924 52.4255 40.6924 52.3345C40.6924 52.2436 40.6698 52.154 40.6267 52.074C40.5835 51.994 40.5212 51.9259 40.4452 51.876C39.6404 51.0817 38.8413 50.2818 38.0479 49.4761C37.7611 49.1804 37.5214 49.159 37.2303 49.4761C36.768 49.9604 36.2928 50.4318 35.8134 50.8946C35.5721 51.1815 35.2309 51.3659 34.859 51.4105C34.487 51.4551 34.112 51.3564 33.8099 51.1346C31.9781 49.9486 29.9481 49.1023 27.8168 48.6361C26.9264 48.439 26.5582 47.9505 26.5325 47.0334C26.5325 46.4334 26.5325 45.8334 26.5325 45.2334C26.5325 44.6335 26.4212 44.4835 25.7877 44.4792L24.2851 44.4963Z" fill="#BA0649"/>
<path d="M70.4923 29.3901C70.4788 31.3366 69.8899 33.2355 68.7998 34.8474C67.7097 36.4592 66.1673 37.7119 64.3671 38.4474C62.5668 39.183 60.5893 39.3684 58.6839 38.9804C56.7786 38.5923 55.0306 37.6482 53.6605 36.267C52.2904 34.8859 51.3594 33.1295 50.985 31.2194C50.6106 29.3093 50.8096 27.3309 51.5568 25.5339C52.3039 23.7368 53.5659 22.2014 55.1835 21.1214C56.8012 20.0413 58.702 19.4649 60.6464 19.4648C61.9452 19.4648 63.2311 19.722 64.4302 20.2216C65.6292 20.7213 66.7177 21.4534 67.6328 22.376C68.548 23.2985 69.2718 24.3932 69.7626 25.597C70.2533 26.8008 70.5013 28.0899 70.4923 29.3901ZM67.5343 29.3901C67.5368 28.0209 67.1336 26.6816 66.3757 25.5419C65.6177 24.4021 64.5391 23.513 63.2763 22.9871C62.0135 22.4611 60.6233 22.322 59.2814 22.5872C57.9396 22.8525 56.7065 23.5102 55.7382 24.4772C54.7699 25.4442 54.1098 26.677 53.8415 28.0196C53.5733 29.3623 53.7088 30.7544 54.231 32.0199C54.7533 33.2854 55.6387 34.3673 56.7753 35.1289C57.912 35.8905 59.2487 36.2975 60.6165 36.2983C61.5247 36.3 62.4243 36.1223 63.2638 35.7754C64.1033 35.4285 64.8662 34.9192 65.5088 34.2767C66.1514 33.6342 66.6611 32.8711 67.0087 32.0311C67.3562 31.1911 67.5348 30.2907 67.5343 29.3815V29.3901Z" fill="#BA0649"/>
<path d="M32.3588 65.7784C32.3596 67.3842 31.8844 68.9541 30.9933 70.2893C30.1023 71.6245 28.8354 72.6649 27.3533 73.2788C25.8711 73.8927 24.2403 74.0525 22.6674 73.7379C21.0944 73.4232 19.6502 72.6484 18.5175 71.5114C17.3848 70.3745 16.6146 68.9266 16.3045 67.3511C15.9943 65.7756 16.1582 64.1435 16.7754 62.6613C17.3925 61.1791 18.4352 59.9137 19.7713 59.0252C21.1074 58.1367 22.6768 57.6651 24.2808 57.6702C26.4242 57.6793 28.4768 58.5371 29.9903 60.0563C31.5039 61.5756 32.3554 63.6327 32.3588 65.7784ZM24.2594 60.6358C23.2434 60.6358 22.2502 60.9374 21.4055 61.5025C20.5607 62.0675 19.9023 62.8707 19.5135 63.8104C19.1247 64.7501 19.0229 65.7841 19.2212 66.7817C19.4194 67.7792 19.9086 68.6956 20.627 69.4148C21.3455 70.134 22.2608 70.6238 23.2573 70.8222C24.2537 71.0206 25.2866 70.9188 26.2253 70.5295C27.1639 70.1403 27.9662 69.4812 28.5307 68.6355C29.0951 67.7898 29.3964 66.7955 29.3964 65.7784C29.3908 64.4158 28.8479 63.1106 27.8859 62.1467C26.9238 61.1828 25.6205 60.6383 24.2594 60.6315V60.6358Z" fill="#BA0649"/>
</svg>
