<svg width="90" height="92" viewBox="0 0 90 92" fill="currentColor" xmlns="http://www.w3.org/2000/svg">
<path d="M84.001 33.9609V35.3198C84.001 42.2183 84.001 49.1207 84.001 56.0192C83.9988 56.6333 83.9147 57.2443 83.7509 57.8362C83.5102 58.7047 83.0001 59.4744 82.294 60.0341C81.5879 60.5938 80.7223 60.9147 79.8221 60.9505C79.4835 60.9698 79.1449 60.9698 78.8062 60.9698C54.3024 60.9698 29.8037 60.9698 5.31015 60.9698C4.60463 60.9841 3.90043 60.9025 3.21686 60.7272C1.23131 60.1767 0.057681 58.4829 0.053833 56.2617C0.053833 49.2246 0.053833 42.1862 0.053833 35.1466C0.053833 26.3823 0.053833 17.618 0.053833 8.85376C0.053833 7.19073 0.581004 5.77407 2.0086 4.79242C2.89385 4.22116 3.93445 3.93871 4.98692 3.984H34.0313C36.4171 3.984 38.8028 3.984 41.1886 3.984C41.5251 4.01315 41.8626 3.9407 42.1576 3.77601C42.4525 3.61132 42.6913 3.36195 42.8432 3.0601C43.1928 2.41747 43.7139 1.88462 44.3485 1.52097C44.9831 1.15732 45.7062 0.977148 46.4372 1.00056C59.4741 1.00056 72.511 1.00056 85.5479 1.00056C86.67 0.981023 87.7559 1.39786 88.577 2.16329C89.3981 2.92872 89.8903 3.98304 89.9499 5.10424C89.9807 5.45456 89.9923 5.80872 89.9923 6.16288C89.9923 13.8339 89.9923 21.5036 89.9923 29.172C89.9923 30.8004 89.4536 32.1593 88.0952 33.1178C87.2878 33.6682 86.3325 33.9608 85.3555 33.9571C84.9245 33.9686 84.4974 33.9609 84.001 33.9609ZM22.5529 42.815C22.5529 42.0874 22.5529 41.2752 22.5529 40.4321C22.5579 39.9526 22.4617 39.4775 22.2708 39.0378C22.0798 38.598 21.7983 38.2034 21.4447 37.8798C20.7794 37.2674 20.3277 36.4579 20.1556 35.57C19.8785 34.2458 19.6438 32.9138 19.4129 31.5819C19.3437 31.1969 19.2475 30.8735 18.8127 30.7157C18.6041 30.6479 18.423 30.5146 18.2962 30.3357C18.1694 30.1568 18.1035 29.9418 18.1085 29.7225C18.1085 27.8593 18.0123 25.9922 18.1085 24.1406C18.2329 22.3064 18.9388 20.5596 20.1235 19.1543C21.3083 17.7489 22.9101 16.7581 24.6962 16.3259C26.702 15.8923 28.7667 15.8012 30.8029 16.0564C34.5316 16.4413 37.1366 18.3969 38.3988 21.9386C39.2954 24.4562 38.9183 27.1163 38.9106 29.7225C38.9089 29.9841 38.8186 30.2373 38.6543 30.4409C38.49 30.6444 38.2615 30.7861 38.0063 30.8427C37.533 30.9659 37.4406 31.2277 37.4637 31.655C37.5907 34.419 36.7865 36.8404 34.8202 38.8422C34.6351 39.0577 34.5269 39.3285 34.5123 39.6121C34.4739 40.6284 34.4893 41.6447 34.5123 42.661C34.5181 42.7647 34.5323 42.8676 34.5547 42.969C35.4589 43.019 36.3247 43.0152 37.1751 43.123C39.2381 43.3795 41.1461 44.351 42.5675 45.8687C43.9889 47.3863 44.834 49.3542 44.9557 51.4304C44.9826 51.877 45.1366 51.9886 45.5675 51.9886C55.1849 51.9886 64.8048 51.9886 74.4273 51.9886C74.8582 51.9886 75.0083 51.8847 75.0044 51.4266C75.0044 45.7754 75.0044 40.1203 75.0044 34.4883C75.0044 34.3266 75.0044 34.1649 74.9737 33.9648H74.5158H61.6328C60.9645 33.9571 60.3167 34.1955 59.8127 34.6346C59.1316 35.2082 58.4467 35.7895 57.7694 36.3631C55.4607 38.3456 53.1519 40.3359 50.82 42.3069C50.5169 42.5871 50.1536 42.7938 49.758 42.9113C48.8191 43.123 48.0572 42.407 48.0533 41.3714C48.0533 39.0924 48.0533 36.8135 48.0533 34.5345V33.9763C47.5146 33.9763 47.0528 33.9763 46.5949 33.9763C45.7577 33.9804 44.9367 33.7458 44.2279 33.2999C43.5192 32.854 42.9521 32.2153 42.5931 31.4587C42.1905 30.6411 41.9975 29.7363 42.0313 28.8255C42.0313 23.744 42.0313 18.6613 42.0313 13.5772V12.9921H9.70837C9.04267 12.9921 9.04267 12.9921 9.04267 13.6658V51.3188C9.04847 51.4111 9.04847 51.5037 9.04267 51.596C9.01189 51.9001 9.14272 52.0079 9.42747 51.9809C10.1201 51.9809 10.8127 51.9578 11.5054 51.9809C11.8555 51.9809 11.9479 51.8308 11.9979 51.5344C12.0787 51.0339 12.1672 50.5335 12.2904 50.0446C13.1408 46.7493 15.0186 44.3703 18.3971 43.4617C19.7701 43.1728 21.1572 42.9556 22.5529 42.8112V42.815ZM50.9932 38.1955C51.2895 37.9722 51.5242 37.8105 51.7397 37.6219C53.8522 35.8087 55.9724 34.0148 58.0619 32.1593C58.9275 31.3623 60.0723 30.939 61.248 30.9813C69.1286 31.0121 77.008 31.0237 84.886 31.016C86.5791 31.016 87.0332 30.5694 87.0332 28.8948C87.0332 21.3188 87.0332 13.7479 87.0332 6.18213C87.0384 5.88922 87.0281 5.59625 87.0024 5.30442C87.0049 4.98468 86.8879 4.67553 86.6744 4.43765C86.4608 4.19977 86.166 4.05033 85.848 4.01865C85.4996 3.96149 85.1466 3.93701 84.7937 3.94551H47.1567C46.9567 3.94551 46.7719 3.94551 46.5603 3.94551C45.6137 3.98785 45.1558 4.39976 45.0211 5.33522C44.9826 5.60942 44.9633 5.88599 44.9634 6.16288C44.9634 13.7235 44.9634 21.2841 44.9634 28.8448C44.9633 29.1217 44.9826 29.3982 45.0211 29.6724C45.125 30.4732 45.5175 30.9043 46.3333 30.9621C47.2991 31.0314 48.2573 31.0121 49.2385 31.0391C50.4468 31.0699 50.9354 31.5626 50.9431 32.7752C50.9431 34.3921 50.9431 36.0089 50.9431 37.6257C50.9701 37.7759 50.9816 37.9568 50.9932 38.1955ZM41.9158 9.9817C41.9158 9.86236 41.9504 9.81616 41.9504 9.77382C41.9504 9.0039 41.9504 8.26477 41.9504 7.51025C41.9504 6.91741 41.9505 6.91741 41.3425 6.91741H5.38711C5.01797 6.9194 4.64924 6.94253 4.28274 6.9867C3.95425 6.99751 3.64247 7.13419 3.41186 7.36848C3.18125 7.60277 3.04944 7.91676 3.0437 8.24552C3.00211 8.65997 2.98156 9.07626 2.98213 9.49279C2.98213 16.4221 2.98213 23.3514 2.98213 30.2807C2.98213 38.814 2.98213 47.346 2.98213 55.8767C2.98213 57.5937 3.43619 58.0287 5.15238 58.0287C29.7332 58.0287 54.3127 58.0287 78.8909 58.0287C80.634 58.0287 81.0458 57.6437 81.0496 55.8883C81.0496 52.3569 81.0496 48.8294 81.0496 45.3057C81.0496 41.7025 81.0496 38.0992 81.0496 34.496C81.0496 34.0879 80.938 33.9532 80.5301 33.9763C79.9183 34.0071 79.2988 33.9763 78.6831 33.9763C78.002 33.9763 78.002 33.9763 78.002 34.6384C78.002 40.5822 78.002 46.526 78.002 52.4698C78.0013 52.8711 77.9795 53.272 77.9366 53.6709C77.9399 53.9687 77.8315 54.2569 77.6327 54.4786C77.4339 54.7002 77.1593 54.8392 76.863 54.8681C76.4381 54.9356 76.0078 54.9627 75.5778 54.949H8.43085C8.10762 54.949 7.78439 54.949 7.46501 54.9259C7.29021 54.9352 7.11533 54.9092 6.95077 54.8495C6.78621 54.7898 6.63535 54.6976 6.50717 54.5784C6.37898 54.4591 6.2761 54.3152 6.20466 54.1554C6.13321 53.9955 6.09465 53.8229 6.09129 53.6478C6.04847 53.3598 6.0266 53.069 6.02587 52.7778C6.02587 39.2862 6.02587 25.7946 6.02587 12.303C6.02584 11.9345 6.05285 11.5665 6.10668 11.202C6.11753 10.9044 6.2385 10.6215 6.44613 10.4081C6.65375 10.1947 6.93321 10.066 7.23028 10.0471C7.6127 9.99305 7.99845 9.96604 8.38467 9.9663H41.9235L41.9158 9.9817ZM28.4749 51.9925H41.558C41.8196 51.9925 42.0543 51.9925 42.0159 51.6075C41.8158 49.4132 40.823 47.7194 38.8682 46.6569C37.7138 46.0256 36.4286 45.9909 35.1434 45.9678C34.8239 45.9499 34.5049 46.0108 34.2144 46.145C33.9239 46.2793 33.6708 46.4828 33.4772 46.7378C31.1685 49.4864 26.3162 49.8867 23.9112 47.0303C23.6101 46.6562 23.2217 46.3618 22.7802 46.1732C22.3387 45.9846 21.8576 45.9074 21.3792 45.9486C21.1791 45.9486 20.9944 45.9486 20.779 45.9486C19.3329 45.9951 17.9537 46.5685 16.9007 47.561C15.8477 48.5535 15.1934 49.8967 15.0609 51.338C15.0147 51.9771 15.0147 51.9809 15.6573 51.9809L28.4749 51.9925ZM21.0406 27.9478C21.7371 27.9478 22.3643 27.9478 22.9915 27.9478C24.8541 28.0708 26.7205 27.7721 28.4518 27.074C29.7178 26.5273 30.9376 25.8767 32.1766 25.2685C33.0155 24.8604 33.4695 24.8835 34.1352 25.5457C34.6316 26.023 35.0511 26.5466 35.5128 27.0393C35.5936 27.124 35.7668 27.2241 35.8322 27.1933C35.8863 27.1569 35.9311 27.1083 35.9632 27.0515C35.9953 26.9947 36.0136 26.9312 36.0169 26.8661C36.0388 25.868 36.0067 24.8695 35.9207 23.8749C35.7632 22.7152 35.2427 21.6351 34.434 20.7893C33.6253 19.9436 32.5697 19.3757 31.4186 19.1669C29.6377 18.8645 27.8213 18.8346 26.0314 19.0783C24.9932 19.1716 24.0043 19.5642 23.1847 20.2086C22.3651 20.8529 21.75 21.7213 21.4139 22.7085C20.779 24.3754 21.0753 26.1116 21.0406 27.9478ZM22.5567 30.9505C22.4973 31.7812 22.5038 32.6154 22.576 33.4451C22.7737 34.7722 23.413 35.9937 24.3906 36.9124C25.3681 37.831 26.6268 38.3929 27.9631 38.5073C29.3551 38.6654 30.757 38.3116 31.9075 37.5119C33.058 36.7123 33.8785 35.5213 34.216 34.1611C34.4161 33.2564 34.3392 32.2902 34.4854 31.3663C34.5555 30.9605 34.5189 30.5434 34.3793 30.156C34.2396 29.7686 34.0017 29.4242 33.6889 29.1566C32.8654 28.3328 32.9193 28.2981 31.8457 28.8255C29.3676 30.0613 26.7856 30.8928 23.992 30.9505C23.5187 30.9621 23.0454 30.9505 22.5567 30.9505ZM25.4619 40.9595C25.4619 41.9488 25.4619 42.8535 25.4619 43.7582C25.4654 44.0992 25.5577 44.4334 25.7298 44.7277C25.9019 45.0221 26.1478 45.2664 26.4432 45.4366C27.2462 45.9688 28.2212 46.1765 29.1714 46.0179C30.4912 45.7946 31.5071 44.863 31.5725 43.7081C31.6264 42.7996 31.5725 41.8834 31.5725 40.8979C29.599 41.5991 27.4475 41.6181 25.4619 40.9518V40.9595Z" fill="#BA0649"/>
<path d="M7.47264 77.6304C7.02031 76.7226 6.627 75.7865 6.29517 74.8279C5.74768 72.8678 5.83388 70.7846 6.54143 68.8764C7.55345 66.1009 9.65059 64.5726 12.5443 64.1183C13.5105 63.986 14.4934 64.0457 15.4367 64.2938C16.3799 64.5419 17.265 64.9737 18.0412 65.5644C18.8175 66.155 19.4697 66.8931 19.9606 67.7362C20.4515 68.5793 20.7714 69.5109 20.902 70.4779C21.2214 72.9532 21.0675 75.4092 19.3628 77.5688C19.7092 77.6843 20.0016 77.7883 20.2979 77.8807C24.1035 79.0355 26.3507 81.5994 26.8818 85.5375C27.0133 86.9325 27.0313 88.3358 26.9356 89.7336C26.9246 90.0709 26.7818 90.3905 26.5379 90.6236C26.294 90.8568 25.9685 90.9851 25.6312 90.9809C25.4465 90.9809 25.2464 90.9809 25.0771 90.9809C17.3529 90.9809 9.63007 90.9809 1.90849 90.9809C1.58693 90.9895 1.26574 90.9532 0.954193 90.8731C0.731459 90.8251 0.529754 90.7075 0.378259 90.5373C0.226764 90.367 0.133335 90.153 0.111489 89.9261C-0.0732133 87.6471 -0.119389 85.3758 0.711771 83.1854C1.76611 80.406 3.87864 78.8084 6.60685 77.8961L7.48419 77.6189C7.51112 77.6073 7.53421 77.5842 7.47264 77.6304ZM24.0189 87.9705C24.0189 87.4007 24.042 86.8772 24.0189 86.3613C23.8265 82.9544 21.5254 80.6293 18.12 80.5523C14.9377 80.4791 11.7516 80.5022 8.56931 80.5523C7.43769 80.5848 6.34232 80.9587 5.42694 81.6251C4.51156 82.2915 3.81894 83.2192 3.43998 84.2864C3.03961 85.4692 2.90815 86.7265 3.05518 87.9666L24.0189 87.9705ZM18.1584 72.4758C18.1123 72.0485 18.0969 71.6135 18.0122 71.1939C17.7736 70.0121 17.4927 68.8264 16.473 68.0218C14.1142 66.1201 10.297 66.8284 9.23501 70.1006C8.91432 71.2267 8.846 72.4097 9.03491 73.5653C9.09705 74.4181 9.41982 75.2312 9.95947 75.8944C10.4991 76.5575 11.2295 77.0386 12.0517 77.2724C13.8603 77.8614 15.5149 77.565 16.8309 76.0637C17.707 75.0763 18.1808 73.7959 18.1584 72.4758Z" fill="#BA0649"/>
<path d="M70.6255 77.6072C69.8563 76.6081 69.3473 75.4334 69.144 74.1888C68.7862 71.5557 68.9324 68.9764 70.714 66.8361C72.7496 64.3877 75.42 63.483 78.4946 64.3338C81.5691 65.1846 83.3699 67.3442 83.8817 70.4932C84.2472 72.3996 83.9937 74.3731 83.1583 76.1251C82.9274 76.5948 82.7543 77.0837 82.5349 77.6111C82.9428 77.7535 83.3045 77.8883 83.6893 78.0153C87.4065 79.2703 89.6691 82.1767 89.9269 86.0995C89.9981 87.2209 90.0058 88.3455 89.95 89.4679C89.8961 90.6035 89.4035 91.0077 88.2645 91.0077H64.7804C63.5568 91.0077 63.1335 90.5766 63.0642 89.3601C62.9642 87.6162 62.9373 85.8955 63.3913 84.1785C64.234 81.0296 66.3004 79.0509 69.3326 78.0192C69.7328 77.8575 70.1445 77.7458 70.6255 77.6072ZM76.536 88.0474H83.0005C84.1549 88.0474 85.3401 88.0474 86.5099 88.0474C86.8947 88.0474 87.0332 87.9165 87.014 87.5431C86.9947 87.1697 87.014 86.8348 87.014 86.4806C86.9639 83.1545 84.6552 80.6869 81.3305 80.5676C78.0867 80.4637 74.839 80.4906 71.5913 80.5676C70.4142 80.6155 69.2796 81.021 68.3385 81.73C67.3975 82.439 66.6946 83.418 66.3235 84.5365C66.0391 85.4496 65.9345 86.4092 66.0156 87.3621C66.0503 88.0204 66.058 88.032 66.7006 88.032L76.536 88.0474ZM71.9569 72.3217C71.9814 72.9046 72.0392 73.4855 72.13 74.0618C72.34 74.9993 72.8479 75.8435 73.5777 76.4681C74.3074 77.0927 75.2198 77.464 76.1781 77.5264C78.4869 77.6034 80.1646 76.4562 80.7764 74.3967C81.0469 73.3362 81.1289 72.2365 81.0188 71.1476C80.9514 70.1728 80.5677 69.2467 79.9259 68.5101C79.2841 67.7736 78.4194 67.2668 77.4633 67.067C76.4912 66.8646 75.4795 66.9875 74.584 67.4167C73.6885 67.8458 72.9587 68.5575 72.5071 69.4422C72.1049 70.347 71.9166 71.3323 71.9569 72.3217Z" fill="#BA0649"/>
<path d="M50.9162 77.6072C51.3395 77.7304 51.7358 77.8266 52.1245 77.9575C55.7185 79.1855 57.8733 81.6724 58.3928 85.4296C58.5205 86.8558 58.5308 88.2901 58.4236 89.7181C58.4043 90.4572 57.8926 90.8729 57.1191 90.9653C56.8613 90.9884 56.5958 90.9846 56.3495 90.9846H33.762C33.3754 90.9865 32.9893 90.9569 32.6076 90.896C32.3418 90.8703 32.0942 90.7494 31.9104 90.5556C31.7265 90.3618 31.6189 90.1081 31.6071 89.8412C31.4186 87.5623 31.357 85.291 32.2228 83.1044C33.3772 80.2403 35.5628 78.6312 38.4257 77.792C38.4983 77.7643 38.5729 77.7425 38.6489 77.7265C39.0337 77.6726 39.0722 77.5225 38.8528 77.2068C38.2198 76.3493 37.8051 75.3504 37.6446 74.2965C37.2598 71.4863 37.3906 68.7454 39.4377 66.528C41.4848 64.3106 44.1515 63.4483 47.1106 64.3491C50.0696 65.2499 51.8974 67.3711 52.39 70.4546C52.7608 72.4217 52.5121 74.4556 51.6781 76.2752C51.478 76.7295 51.1971 77.1375 50.9162 77.6072ZM45.0404 88.0011H55.0989C55.3183 88.0011 55.5414 88.0242 55.5222 87.6855C55.4837 86.9155 55.5222 86.1071 55.4145 85.3372C55.1932 84.0044 54.5117 82.7914 53.4887 81.9094C52.4658 81.0273 51.166 80.5321 49.8157 80.5098C47.4646 80.4751 45.1135 80.4443 42.7585 80.4443C41.6678 80.401 40.5754 80.4448 39.4916 80.5752C36.2131 81.0988 34.1044 84.0399 34.4892 87.3813C34.547 87.8587 34.7086 88.0165 35.2011 88.0127C38.4796 88.0011 41.7657 88.0281 45.0404 88.0281V88.0011ZM40.4228 72.2755C40.4595 72.9027 40.5315 73.5273 40.6383 74.1464C40.8754 75.0779 41.407 75.9078 42.1537 76.5127C42.9005 77.1176 43.8225 77.465 44.7825 77.5032C47.0413 77.5417 48.7229 76.3484 49.2847 74.3004C49.615 73.0613 49.6584 71.7631 49.4116 70.5047C49.2365 69.6323 48.8005 68.8338 48.1614 68.215C47.5223 67.5963 46.7103 67.1865 45.833 67.04C43.7744 66.7359 41.9851 67.6021 41.05 69.3267C40.6069 70.2551 40.3856 71.2738 40.4036 72.3024L40.4228 72.2755Z" fill="#BA0649"/>
<path d="M58.5582 17.4609V10.3969C58.5582 9.71548 58.6198 9.03795 59.2778 8.65684C59.9358 8.27573 60.5861 8.58369 61.1748 8.94941C64.9048 11.2797 68.6271 13.6113 72.3416 15.9441C73.9001 16.9258 73.8808 18.0191 72.3416 19.0238C68.6399 21.3336 64.9369 23.6434 61.2326 25.9531C61.0632 26.0593 60.8871 26.1545 60.7054 26.238C59.5818 26.7423 58.6467 26.1841 58.5659 24.9522C58.5351 24.4633 58.5659 23.9667 58.5659 23.474C58.5659 21.4747 58.5659 19.4742 58.5659 17.4724L58.5582 17.4609ZM61.5673 22.2614L69.2363 17.4647L61.5673 12.6681V22.2614Z" fill="#BA0649"/>
</svg>
