<svg width="97" height="88" viewBox="0 0 97 88" fill="none" xmlns="http://www.w3.org/2000/svg">
<path d="M36.7066 78.477C36.7066 78.2608 36.7328 78.0976 36.7328 77.9345C36.7328 75.203 36.7328 72.4716 36.7328 69.7401C36.7328 69.281 36.6168 69.152 36.1566 69.152C25.9336 69.152 15.7107 69.152 5.47277 69.1748C4.58306 69.1951 3.70848 68.9392 2.96616 68.4416C2.22384 67.9439 1.64921 67.2282 1.31924 66.3902C1.11585 65.8206 1.00833 65.2205 1.00117 64.6148C1.00117 44.5991 1.00117 24.5784 1.00117 4.55259C0.981489 3.95928 1.0803 3.36807 1.29168 2.81447C1.50306 2.26086 1.82264 1.75629 2.23122 1.33107C2.63981 0.905847 3.12895 0.568751 3.66928 0.340033C4.20961 0.111315 4.78997 -0.00430367 5.37548 0.000122437H91.32C92.742 0.000122437 93.9731 0.417432 94.9235 1.51761C95.6438 2.34541 96.0288 3.41871 96.0012 4.52224C96.0012 11.533 96.0012 18.5451 96.0012 25.5584V64.6641C96.0327 65.6433 95.7367 66.6046 95.1613 67.3918C94.5859 68.179 93.765 68.7458 92.8318 69.0003C92.3529 69.117 91.861 69.1693 91.3687 69.1558C81.2355 69.1558 71.1024 69.1558 60.9693 69.1558C60.2845 69.1558 60.2845 69.1558 60.2845 69.8387V77.8511C60.2845 78.0445 60.3032 78.2304 60.3144 78.4694H61.6204C63.162 78.4694 64.7037 78.4694 66.2454 78.4694C66.643 78.4522 67.0398 78.519 67.4107 78.6654C67.7816 78.8119 68.1184 79.0348 68.3998 79.3202C68.6812 79.6055 68.9011 79.947 69.0456 80.323C69.19 80.6989 69.2559 81.1013 69.2389 81.5044C69.2389 82.4301 69.2389 83.3557 69.2389 84.2814C69.2531 84.6772 69.1866 85.0717 69.0436 85.4402C68.9005 85.8087 68.6841 86.1434 68.4077 86.4232C68.1313 86.7031 67.8009 86.9221 67.4372 87.0667C67.0736 87.2112 66.6844 87.2781 66.294 87.2633H42.5665C38.6749 87.2633 34.7833 87.2253 30.8917 87.2822C30.477 87.3035 30.0625 87.2363 29.675 87.085C29.2875 86.9336 28.9357 86.7015 28.6423 86.4037C28.3488 86.1058 28.1203 85.7488 27.9715 85.3558C27.8227 84.9628 27.7569 84.5425 27.7784 84.1221C27.7784 83.2268 27.7784 82.3314 27.7784 81.4361C27.7699 81.038 27.8419 80.6423 27.9901 80.2735C28.1383 79.9047 28.3595 79.5707 28.6401 79.2919C28.9206 79.0132 29.2545 78.7958 29.6212 78.653C29.9878 78.5102 30.3795 78.4452 30.7719 78.4618C32.583 78.4618 34.3941 78.4618 36.2052 78.4618L36.7066 78.477ZM48.4937 2.77333H5.83574C5.65613 2.77333 5.46155 2.77333 5.2969 2.77333C4.95198 2.78616 4.62028 2.9111 4.35076 3.1297C4.08124 3.3483 3.8882 3.64897 3.80013 3.98732C3.75052 4.2561 3.73293 4.52994 3.74775 4.80297V64.3985C3.74775 64.5654 3.74775 64.7362 3.74775 64.8993C3.76639 65.2505 3.90023 65.5854 4.12801 65.8507C4.3558 66.116 4.66448 66.2965 5.00503 66.3637C5.27094 66.4074 5.54023 66.4264 5.80955 66.4206H91.2115C91.462 66.4233 91.7122 66.4055 91.9599 66.3675C92.2946 66.3106 92.6015 66.1433 92.8329 65.8915C93.0643 65.6398 93.2072 65.3177 93.2396 64.9752C93.2658 64.7172 93.2658 64.4592 93.2696 64.2164V4.9699C93.2696 4.7271 93.2696 4.4843 93.2434 4.2453C93.2203 3.91746 93.0946 3.60565 92.8846 3.35524C92.6746 3.10483 92.3913 2.92888 92.0759 2.853C91.8131 2.7941 91.5442 2.76735 91.2751 2.77333H48.4937ZM57.5454 78.458C57.5454 78.257 57.5679 78.109 57.5679 77.9611C57.5679 75.203 57.5679 72.4412 57.5679 69.6794C57.5679 69.2393 57.4182 69.1558 57.0253 69.1596C51.3425 69.1596 45.6586 69.1596 39.9733 69.1596C39.5393 69.1596 39.4158 69.2848 39.4195 69.7211C39.4195 72.4678 39.4195 75.2106 39.4195 77.9573C39.4195 78.1204 39.4195 78.2797 39.4457 78.4618L57.5454 78.458ZM66.4512 81.2578H31.1499C31.075 81.2578 31.0002 81.2578 30.9254 81.2578C30.6185 81.2161 30.5025 81.3375 30.51 81.6637C30.5324 82.4225 30.51 83.1509 30.51 83.8944C30.51 84.5204 30.51 84.5204 31.1087 84.5204H65.8637C66.0545 84.5204 66.2379 84.4976 66.4437 84.4863L66.4512 81.2578Z" fill="#BA0649"/>
<path d="M48.5411 6.06982H88.1008C88.3103 6.06982 88.5199 6.06982 88.7294 6.06982C89.0696 6.07397 89.3957 6.20849 89.6421 6.44635C89.8885 6.68421 90.037 7.00779 90.0578 7.3521C90.0578 7.4735 90.0578 7.5949 90.0578 7.73147V61.4847C90.0578 62.3724 89.721 62.8998 89.025 63.0894C88.8656 63.1267 88.7021 63.1432 88.5386 63.1388H8.48384C7.47726 63.1388 6.94965 62.5735 6.94965 61.4961V37.6412C6.94965 27.6991 6.94965 17.7583 6.94965 7.81873C6.94382 7.56386 6.96769 7.30918 7.02075 7.05999C7.08719 6.78549 7.23998 6.54039 7.45602 6.36175C7.67205 6.1831 7.93959 6.08063 8.21816 6.06982C8.42771 6.06982 8.63726 6.06982 8.84681 6.06982H48.5411ZM87.2925 20.926H33.5173V60.32H87.2925V20.926ZM9.70371 60.339H30.7333V14.8978H9.70371V60.339ZM87.2925 8.8013H34.2171C34.1423 8.807 34.0673 8.807 33.9925 8.8013C33.6183 8.74819 33.4574 8.88476 33.4762 9.30207C33.5098 10.0608 33.5136 10.8196 33.4762 11.5783C33.4537 12.0222 33.6221 12.098 34.0113 12.098C51.6133 12.098 69.2153 12.098 86.8173 12.098C86.9745 12.098 87.1316 12.098 87.2925 12.0753V8.8013ZM30.767 12.0639C30.767 11.1306 30.7408 10.2353 30.767 9.3438C30.7857 8.89615 30.6286 8.79372 30.2057 8.79372C23.5501 8.79372 16.8932 8.79372 10.2351 8.79372C10.0629 8.79372 9.88706 8.81268 9.70371 8.82407V12.0639H30.767ZM50.094 14.9016H33.5136V18.0807H50.094V14.9016ZM70.6933 14.8788C70.6933 15.8159 70.7158 16.7074 70.6933 17.5951C70.6933 18.0276 70.828 18.1187 71.2284 18.1187C76.4197 18.1187 81.611 18.1187 86.8023 18.1187C86.9595 18.1187 87.1204 18.1187 87.2888 18.0959V14.8788H70.6933ZM67.9804 18.0845C67.9804 17.1399 67.958 16.2484 67.9804 15.3569C67.9804 14.9471 67.8607 14.8523 67.4715 14.8523C62.7617 14.8675 58.0519 14.8675 53.342 14.8523C53.1811 14.8523 53.024 14.8523 52.8631 14.875V18.0732L67.9804 18.0845Z" fill="#BA0649"/>
<path d="M52.5974 47.9146L60.3956 30.1372C63.015 36.063 65.5857 41.9205 68.2125 47.888C67.9618 47.8046 67.8121 47.7628 67.6699 47.7059C65.3873 46.803 63.1048 45.9039 60.8297 44.9896C60.6962 44.9286 60.5514 44.897 60.405 44.897C60.2585 44.897 60.1138 44.9286 59.9803 44.9896C57.7089 45.9077 55.4263 46.8106 53.1475 47.7173L52.5974 47.9146ZM62.5734 42.1785L60.433 37.368L58.2515 42.1785H62.5734Z" fill="#BA0649"/>
<path d="M23.953 36.2225C24.6528 36.2225 25.3562 36.2225 26.0597 36.2225C26.2481 36.2084 26.4373 36.2338 26.6155 36.2972C26.7938 36.3606 26.9572 36.4606 27.0956 36.5909C27.234 36.7212 27.3444 36.879 27.4199 37.0546C27.4954 37.2301 27.5343 37.4195 27.5343 37.611C27.5343 37.8025 27.4954 37.992 27.4199 38.1675C27.3444 38.343 27.234 38.5009 27.0956 38.6312C26.9572 38.7615 26.7938 38.8615 26.6155 38.9249C26.4373 38.9883 26.2481 39.0137 26.0597 38.9995C24.6528 38.9995 23.2495 38.9995 21.8426 38.9995C21.6542 39.0137 21.465 38.9883 21.2868 38.9249C21.1085 38.8615 20.9451 38.7615 20.8067 38.6312C20.6683 38.5009 20.5579 38.343 20.4824 38.1675C20.4069 37.992 20.368 37.8025 20.368 37.611C20.368 37.4195 20.4069 37.2301 20.4824 37.0546C20.5579 36.879 20.6683 36.7212 20.8067 36.5909C20.9451 36.4606 21.1085 36.3606 21.2868 36.2972C21.465 36.2338 21.6542 36.2084 21.8426 36.2225C22.5461 36.2188 23.2495 36.2225 23.953 36.2225Z" fill="#BA0649"/>
<path d="M23.9193 20.8881C23.2009 20.8881 22.4824 20.8881 21.764 20.8881C21.5843 20.8968 21.4048 20.8687 21.2361 20.8055C21.0674 20.7424 20.913 20.6454 20.782 20.5204C20.6511 20.3955 20.5463 20.245 20.4739 20.0781C20.4015 19.9112 20.363 19.7312 20.3607 19.5489C20.35 19.366 20.3763 19.1827 20.4381 19.0105C20.4998 18.8382 20.5957 18.6806 20.7198 18.5474C20.8439 18.4141 20.9936 18.308 21.1596 18.2356C21.3257 18.1631 21.5046 18.126 21.6854 18.1263C23.1821 18.0959 24.6926 18.0959 26.2168 18.1263C26.3975 18.1302 26.5756 18.1705 26.7407 18.2451C26.9057 18.3196 27.0545 18.4268 27.1782 18.5603C27.3019 18.6939 27.3981 18.8511 27.4611 19.0228C27.5241 19.1945 27.5527 19.3773 27.5452 19.5603C27.5258 19.9276 27.3654 20.2726 27.0982 20.5215C26.8311 20.7704 26.4784 20.9033 26.1158 20.8919H23.9193V20.8881Z" fill="#BA0649"/>
<path d="M23.9306 45.0239C23.1822 45.0239 22.4637 45.0239 21.7341 45.0239C21.3858 45.0363 21.0468 44.909 20.7904 44.6697C20.5341 44.4304 20.381 44.0983 20.3645 43.7454C20.3443 43.568 20.3603 43.3882 20.4114 43.2172C20.4626 43.0463 20.5478 42.8878 20.6618 42.7516C20.7758 42.6154 20.9162 42.5043 21.0742 42.4254C21.2323 42.3464 21.4046 42.3011 21.5806 42.2925C22.5498 42.2318 23.5227 42.2583 24.4919 42.2583C25.1159 42.2415 25.7403 42.2567 26.3628 42.3038C26.7009 42.3449 27.0105 42.5164 27.2272 42.7827C27.4439 43.049 27.5511 43.3897 27.5266 43.7341C27.5025 44.0775 27.3531 44.3995 27.1075 44.6373C26.8618 44.8751 26.5377 45.0116 26.1982 45.0201C25.8689 45.0201 25.5396 45.0201 25.2103 45.0201L23.9306 45.0239Z" fill="#BA0649"/>
<path d="M23.9268 26.9127C23.1784 26.9127 22.4637 26.9127 21.7303 26.9127C21.373 26.9127 21.0304 26.7688 20.7777 26.5126C20.5251 26.2565 20.3832 25.9091 20.3832 25.5469C20.3832 25.1847 20.5251 24.8373 20.7777 24.5812C21.0304 24.3251 21.373 24.1812 21.7303 24.1812C23.2083 24.1812 24.6901 24.1812 26.1682 24.1812C26.3479 24.1751 26.5269 24.2057 26.6946 24.2712C26.8624 24.3367 27.0154 24.4358 27.1446 24.5625C27.2738 24.6892 27.3765 24.841 27.4466 25.0089C27.5167 25.1767 27.5528 25.3571 27.5527 25.5393C27.5524 25.7253 27.515 25.9092 27.4428 26.0801C27.3707 26.251 27.2652 26.4054 27.1328 26.534C27.0004 26.6626 26.8437 26.7628 26.6721 26.8285C26.5006 26.8942 26.3177 26.9241 26.1345 26.9165H23.9268V26.9127Z" fill="#BA0649"/>
<path d="M23.9867 30.2016C24.7051 30.2016 25.4236 30.2016 26.1383 30.2016C26.3178 30.1956 26.4967 30.2256 26.6647 30.2899C26.8328 30.3542 26.9866 30.4515 27.1174 30.5764C27.2481 30.7012 27.3533 30.851 27.4267 31.0172C27.5001 31.1833 27.5404 31.3626 27.5453 31.5446C27.5512 31.7237 27.5219 31.9022 27.459 32.0696C27.3961 32.237 27.3009 32.3901 27.1789 32.5197C27.057 32.6494 26.9107 32.7531 26.7487 32.8247C26.5867 32.8963 26.4123 32.9345 26.2356 32.9369C24.7114 32.9673 23.1872 32.9673 21.6629 32.9369C21.4822 32.9381 21.3033 32.9011 21.1375 32.8282C20.9717 32.7552 20.8228 32.648 20.7002 32.5134C20.5777 32.3788 20.4842 32.2197 20.4257 32.0464C20.3673 31.873 20.3451 31.6892 20.3608 31.5067C20.3655 31.3283 20.4054 31.1527 20.4778 30.9901C20.5503 30.8275 20.6541 30.6812 20.783 30.5597C20.9119 30.4382 21.0633 30.3439 21.2286 30.2825C21.3938 30.221 21.5695 30.1935 21.7453 30.2016C22.4937 30.1978 23.2383 30.2016 23.9867 30.2016Z" fill="#BA0649"/>
<path d="M15.0359 36.2225C15.2717 36.2225 15.5112 36.2225 15.7507 36.2225C16.1046 36.2258 16.4441 36.3657 16.6999 36.6138C16.9557 36.8619 17.1087 37.1995 17.1277 37.5578C17.1371 37.9177 17.0087 38.2673 16.7694 38.5333C16.5301 38.7992 16.1985 38.9609 15.8442 38.9843C15.2935 39.0222 14.7409 39.0222 14.1903 38.9843C14.0139 38.9771 13.8408 38.9342 13.6811 38.8582C13.5213 38.7822 13.3781 38.6746 13.26 38.5417C13.1418 38.4088 13.051 38.2533 12.9929 38.0844C12.9348 37.9154 12.9106 37.7364 12.9218 37.5578C12.9267 37.1986 13.0714 36.8559 13.3244 36.6044C13.5774 36.3528 13.9182 36.2128 14.2726 36.2149C14.527 36.2149 14.7815 36.2225 15.0359 36.2225Z" fill="#BA0649"/>
<path d="M14.9873 20.8881H14.3175C13.9633 20.9015 13.6181 20.7728 13.3569 20.53C13.0956 20.2871 12.9393 19.9496 12.9218 19.5906C12.906 19.4092 12.9266 19.2263 12.9825 19.0531C13.0384 18.88 13.1283 18.7201 13.2469 18.5832C13.3655 18.4463 13.5102 18.3352 13.6724 18.2567C13.8346 18.1781 14.0108 18.1338 14.1903 18.1263C14.7409 18.0845 15.2937 18.0845 15.8442 18.1263C16.1989 18.1488 16.5311 18.3101 16.7706 18.5763C17.0101 18.8425 17.1381 19.1926 17.1277 19.5527C17.1093 19.9193 16.9503 20.2642 16.6847 20.5136C16.419 20.7631 16.0678 20.8975 15.7058 20.8881H14.9873Z" fill="#BA0649"/>
<path d="M14.9986 45.0238C14.7441 45.0238 14.4897 45.0238 14.2502 45.0238C13.9175 45.0236 13.5973 44.8954 13.3542 44.6652C13.1111 44.4349 12.9633 44.1197 12.9405 43.7832C12.9153 43.6135 12.9239 43.4403 12.9659 43.274C13.0079 43.1077 13.0824 42.9516 13.185 42.815C13.2876 42.6785 13.4162 42.5642 13.5632 42.4789C13.7102 42.3937 13.8725 42.3393 14.0407 42.3188C14.7089 42.2524 15.3819 42.2524 16.0501 42.3188C16.3717 42.3712 16.6621 42.5441 16.8638 42.8034C17.0655 43.0628 17.1637 43.3894 17.139 43.7187C17.1188 44.0548 16.9785 44.372 16.7443 44.6108C16.5101 44.8496 16.1981 44.9937 15.8667 45.0162C15.5823 45.0162 15.2979 45.0162 15.0136 45.0162L14.9986 45.0238Z" fill="#BA0649"/>
<path d="M14.9686 26.9088C14.7142 26.9088 14.4597 26.9088 14.2202 26.9088C14.0482 26.9054 13.8786 26.8676 13.721 26.7976C13.5634 26.7277 13.4209 26.627 13.3018 26.5012C13.1826 26.3754 13.089 26.2271 13.0264 26.0646C12.9637 25.9022 12.9333 25.7288 12.9368 25.5545C12.9282 25.3794 12.9544 25.2045 13.0138 25.0399C13.0732 24.8754 13.1646 24.7246 13.2826 24.5965C13.4005 24.4684 13.5426 24.3657 13.7005 24.2943C13.8583 24.223 14.0287 24.1845 14.2015 24.1811C14.7516 24.1584 15.3241 24.1584 15.8592 24.1811C16.0356 24.1826 16.21 24.2193 16.3724 24.2892C16.5348 24.359 16.6821 24.4606 16.8058 24.5881C16.9295 24.7156 17.0272 24.8666 17.0934 25.0324C17.1595 25.1982 17.1928 25.3756 17.1913 25.5545C17.1899 25.7333 17.1536 25.9101 17.0848 26.0748C17.0159 26.2394 16.9157 26.3887 16.7899 26.5142C16.6641 26.6396 16.5152 26.7386 16.3517 26.8057C16.1881 26.8728 16.0132 26.9065 15.8368 26.905C15.5374 26.9354 15.253 26.9088 14.9686 26.9088Z" fill="#BA0649"/>
<path d="M15.036 30.2053C15.2905 30.2053 15.5449 30.2053 15.7844 30.2053C16.1321 30.2139 16.4635 30.357 16.7105 30.6053C16.9575 30.8536 17.1014 31.1883 17.1128 31.5407C17.1246 31.8862 17.0049 32.223 16.7785 32.4814C16.5521 32.7399 16.2364 32.9002 15.8967 32.9292C15.3 32.9729 14.701 32.9729 14.1043 32.9292C13.9323 32.916 13.7646 32.8679 13.6113 32.7877C13.458 32.7075 13.3222 32.5968 13.2119 32.4624C13.1016 32.3279 13.019 32.1723 12.9692 32.0048C12.9194 31.8374 12.9033 31.6615 12.9218 31.4876C12.9334 31.1427 13.0763 30.8157 13.3204 30.5753C13.5646 30.3348 13.8911 30.1995 14.2315 30.1978C14.4972 30.1978 14.7703 30.2053 15.036 30.2053Z" fill="#BA0649"/>
</svg>
