<svg width="105" height="98" viewBox="0 0 105 98" fill="none" xmlns="http://www.w3.org/2000/svg">
<path d="M34.3452 18.8873C34.7583 18.7352 35.0467 18.6378 35.3274 18.5208C36.4913 18.0603 37.5398 17.3495 38.3986 16.4387C38.4975 16.3225 38.6226 16.2315 38.7636 16.1732C38.9045 16.1149 39.0573 16.091 39.2093 16.1033C40.0356 16.1228 40.8619 16.1033 41.7388 16.1033C41.7388 15.8733 41.77 15.6783 41.77 15.4795C41.77 13.6859 41.7427 11.8923 41.77 10.0987C41.8487 7.61285 42.8145 5.23732 44.4924 3.4021C46.1703 1.56688 48.4496 0.393237 50.9176 0.0936091C51.3804 0.0352382 51.8463 0.00399204 52.3129 3.05989e-05C55.0879 3.05989e-05 57.863 3.05989e-05 60.6381 3.05989e-05C63.1088 -0.0178692 65.5063 0.839405 67.4059 2.42008C69.3055 4.00075 70.5848 6.20287 71.0172 8.63655C71.064 8.89389 71.0991 9.15513 71.1458 9.46316H71.7617C80.4454 9.46316 89.1291 9.46316 97.8129 9.46316C99.4614 9.44384 101.065 10.0014 102.346 11.0395C103.627 12.0776 104.505 13.5309 104.828 15.1481C104.923 15.5889 104.972 16.0384 104.973 16.4893C104.973 35.1739 104.973 53.8584 104.973 72.5429C104.973 76.4927 101.777 79.5808 97.7076 79.5847C87.5584 79.5847 77.4105 79.5847 67.2639 79.5847H66.574C66.6831 79.8303 66.7533 80.0097 66.8391 80.1851C68.098 82.7936 69.3725 85.3943 70.6158 88.0106C70.6706 88.1825 70.7832 88.3301 70.9346 88.4283C71.086 88.5264 71.2667 88.5689 71.446 88.5487C72.5458 88.5723 73.5931 89.0238 74.3657 89.8073C75.1382 90.5908 75.5752 91.6446 75.5838 92.7451C75.5924 93.8456 75.172 94.9061 74.4118 95.7016C73.6517 96.4971 72.6115 96.965 71.5122 97.0059C64.8396 97.0059 58.167 97.0059 51.4944 97.0059C48.1451 97.0059 44.7945 97.0059 41.4426 97.0059C40.3211 97.0059 39.2454 96.5601 38.4524 95.7668C37.6593 94.9734 37.2138 93.8973 37.2138 92.7753C37.2138 91.6533 37.6593 90.5773 38.4524 89.7839C39.2454 88.9905 40.3211 88.5448 41.4426 88.5448C41.6221 88.5674 41.8039 88.5269 41.9567 88.4301C42.1096 88.3334 42.2241 88.1864 42.2806 88.0145C43.5434 85.3592 44.8335 82.7117 46.1158 80.0642C46.182 79.9278 46.2405 79.7913 46.334 79.5808H15.2316C11.946 79.5808 9.22547 77.6507 8.29005 74.6211C8.07991 73.9546 7.96701 73.2612 7.95486 72.5624C7.93668 62.8146 7.93668 53.0668 7.95486 43.3191C7.95486 43.1826 7.95486 43.0461 7.97435 42.9292L10.7338 42.5861V72.3284C10.6992 73.3355 11.0183 74.3229 11.6355 75.1192C12.2528 75.9156 13.1294 76.4705 14.113 76.6876C14.4971 76.7704 14.8893 76.8096 15.2823 76.8046C42.7522 76.8046 70.2208 76.8046 97.6882 76.8046C100.397 76.8046 102.248 74.9525 102.248 72.2543V16.8169C102.248 14.0875 100.397 12.251 97.6609 12.251C89.0707 12.251 80.4805 12.251 71.8903 12.251C71.1965 12.251 71.1965 12.251 71.1965 12.9256C71.1965 17.6825 71.1965 22.4394 71.1965 27.1963C71.1965 32.4601 69.0801 36.6126 64.8396 39.7124C64.7568 39.7818 64.69 39.8682 64.6436 39.9658C64.5972 40.0633 64.5723 40.1698 64.5707 40.2778C64.6221 41.3529 64.9837 42.3901 65.6117 43.264C66.2397 44.1379 67.1073 44.8112 68.1097 45.2024C72.5334 47.1168 76.9805 48.9923 81.4042 50.9145C85.6447 52.7588 88.2093 55.9834 89.0746 60.5297C89.2033 61.3302 89.262 62.1404 89.25 62.9511C89.25 65.1502 89.25 67.3493 89.25 69.5484C89.25 70.1722 89.25 70.1722 89.8502 70.1722C91.5807 70.1722 93.3112 70.1722 95.0417 70.1722C95.4315 70.1722 95.6069 70.0942 95.6069 69.638C95.6069 52.8875 95.6069 36.1369 95.6069 19.3864C95.6069 18.9614 95.4705 18.8717 95.0729 18.8717C88.7901 18.8717 82.5072 18.8717 76.2244 18.8717C75.9275 18.9011 75.6289 18.8359 75.3713 18.6853C75.1137 18.5347 74.9102 18.3066 74.7901 18.0334C74.6993 17.8296 74.659 17.607 74.6725 17.3843C74.686 17.1617 74.7529 16.9456 74.8677 16.7543C74.9824 16.563 75.1415 16.4022 75.3315 16.2855C75.5216 16.1688 75.7369 16.0996 75.9593 16.0838C76.0957 16.0838 76.2399 16.0838 76.3803 16.0838H96.6592C97.8285 16.0838 98.3468 16.5946 98.3468 17.7566V71.2601C98.3468 72.4298 97.8285 72.9562 96.6319 72.9562H16.2917C15.1225 72.9562 14.5807 72.4376 14.5807 71.2523C14.5807 61.1302 14.5807 51.0081 14.5807 40.886C14.5726 40.6499 14.6581 40.4201 14.8185 40.2466C15.8808 39.4742 16.7472 38.4632 17.348 37.295V69.4821C17.348 70.1722 17.348 70.1722 18.0222 70.1761H23.0891C23.7166 70.1761 23.7205 70.1761 23.7205 69.525C23.7205 67.1855 23.6425 64.8109 23.7438 62.4598C23.966 57.2155 26.5033 53.4178 31.2544 51.2187C35.7171 49.1599 40.2578 47.2689 44.7711 45.3154C45.6579 44.9656 46.4433 44.3996 47.0559 43.669C47.6685 42.9384 48.0889 42.0662 48.2789 41.1317C48.2789 41.0732 48.3023 41.0108 48.3179 40.9484C48.4972 40.2661 48.3179 39.8333 47.6943 39.3654C43.8864 36.4801 41.848 32.6238 41.77 27.824C41.731 26.0655 41.8285 24.3148 41.8402 22.5408C41.8402 21.4802 41.7895 20.4196 41.7856 19.3591C41.7856 18.9965 41.6609 18.8795 41.2906 18.8795C39.0378 18.8951 36.7617 18.8873 34.3452 18.8873ZM56.4404 70.1839H85.8084C86.4359 70.1839 86.4359 70.1839 86.4359 69.5445C86.4359 67.3142 86.4359 65.0839 86.4359 62.8536C86.4516 62.4176 86.436 61.9811 86.3892 61.5474C85.8357 57.7185 83.8012 55.0047 80.2466 53.4685C76.1932 51.71 72.1241 49.9904 68.0668 48.2359C67.9421 48.1708 67.8005 48.1456 67.6611 48.1638C67.5216 48.1819 67.3912 48.2425 67.2873 48.3372C64.6889 50.2712 62.0814 52.1973 59.4649 54.1157C57.7734 55.3634 56.1987 55.3946 54.4604 54.221C51.7789 52.404 49.074 50.6143 46.4276 48.7622C46.1371 48.5148 45.7777 48.3623 45.3979 48.3253C45.0181 48.2884 44.6362 48.3687 44.3034 48.5556C40.4293 50.3024 36.5083 51.9283 32.6303 53.6673C28.6353 55.4336 26.5657 58.5451 26.5033 62.9316C26.4682 65.1307 26.5033 67.3298 26.5033 69.5289C26.5033 70.1839 26.5033 70.1839 27.1659 70.1839H56.4404ZM68.3825 19.1056L67.8953 19.3786C63.7639 21.7999 59.461 22.2054 54.9866 20.4586C52.917 19.6476 50.8669 18.782 48.7973 17.9632C48.333 17.7651 47.8266 17.6857 47.324 17.7323C46.8213 17.7789 46.3382 17.95 45.9182 18.2301C45.4982 18.5103 45.1545 18.8906 44.9182 19.3368C44.6819 19.7831 44.5603 20.2812 44.5646 20.7862C44.5646 23.1724 44.5646 25.5587 44.5646 27.941C44.5664 28.4397 44.6054 28.9376 44.6815 29.4305C45.1554 32.4844 46.7994 35.2337 49.2652 37.0956C51.731 38.9575 54.8246 39.7856 57.8903 39.4044C62.4114 38.8078 65.5762 36.3241 67.4471 32.1832C67.7082 31.6101 67.868 31.0135 68.0746 30.3974C68.0179 30.3925 67.9607 30.399 67.9065 30.4164C67.8523 30.4338 67.8021 30.4618 67.7589 30.4988C66.7108 31.4354 65.5184 32.1964 64.2277 32.7525C64.0461 32.8569 63.9078 33.0229 63.8379 33.2204C63.5562 33.9357 63.0657 34.5496 62.4303 34.9822C61.795 35.4147 61.0441 35.6459 60.2756 35.6456C59.231 35.6456 58.1865 35.6456 57.1575 35.6456C56.1714 35.6105 55.2368 35.1961 54.5486 34.4887C53.8603 33.7813 53.4714 32.8356 53.4628 31.8484C53.4543 30.8613 53.8268 29.909 54.5027 29.1898C55.1786 28.4706 56.1059 28.04 57.0913 27.9878C58.2138 27.9527 59.3363 27.9683 60.4588 27.9878C60.9358 27.9948 61.4064 28.0983 61.8425 28.2919C62.2785 28.4856 62.6709 28.7654 62.9961 29.1146C63.2338 29.3525 63.4326 29.6332 63.6742 29.9257C63.834 29.8477 64.0055 29.7736 64.1653 29.6839C65.591 28.8903 66.7965 27.754 67.6731 26.3775C68.2135 25.6262 68.4691 24.7071 68.3942 23.7846C68.3318 23.149 68.3942 22.5057 68.3942 21.8662L68.3825 19.1056ZM44.6074 15.729C44.7205 15.6861 44.8062 15.6588 44.8842 15.6198C45.6807 15.2033 46.5612 14.9725 47.4596 14.9448C48.3581 14.9171 49.2511 15.0933 50.0718 15.46C52.0868 16.2866 54.1096 17.0976 56.1286 17.9125C58.4391 18.8512 60.9956 18.9965 63.3975 18.3258C65.1553 17.8618 66.6403 16.8403 68.1798 15.9318C68.2417 15.8709 68.2906 15.7979 68.3235 15.7175C68.3563 15.6371 68.3724 15.5508 68.3708 15.4639C68.3708 14.6217 68.3708 13.7795 68.3708 12.9373C68.4203 11.8156 68.4033 10.692 68.3201 9.57233C68.1052 7.68032 67.193 5.93641 65.7617 4.68117C64.3303 3.42593 62.4827 2.7495 60.5796 2.78399C57.8825 2.78399 55.1854 2.78399 52.4883 2.78399C51.9904 2.78332 51.493 2.81589 50.9994 2.88147C47.6787 3.31817 44.7244 6.45305 44.5879 9.77119C44.51 11.67 44.5607 13.5767 44.5568 15.4795C44.5648 15.5659 44.5779 15.6518 44.5957 15.7368L44.6074 15.729ZM67.7745 88.5214C67.716 88.3693 67.6887 88.2836 67.6497 88.2017C66.3129 85.4411 64.9721 82.6844 63.6509 79.9161C63.5027 79.6041 63.3001 79.5847 63.0195 79.5847C58.6542 79.5847 54.2902 79.5847 49.9276 79.5847C49.7915 79.5664 49.6533 79.5951 49.5357 79.666C49.4181 79.7369 49.3281 79.8457 49.2806 79.9746C47.9827 82.6844 46.6692 85.3865 45.383 88.0925C45.3207 88.2212 45.2778 88.3576 45.2115 88.5292L67.7745 88.5214ZM48.123 46.5397C48.2867 46.6606 48.4075 46.7542 48.5362 46.84L56.0389 51.9088C56.7405 52.3845 57.0796 52.3767 57.7695 51.8698C60.0248 50.2088 62.2815 48.5439 64.5395 46.8751C64.6603 46.7854 64.7733 46.684 64.9292 46.5553C63.2843 45.232 62.1762 43.3558 61.8112 41.276C60.1 41.9317 58.2845 42.2725 56.4521 42.2819C54.6186 42.2688 52.8018 41.9322 51.0852 41.2876C50.76 43.3373 49.7086 45.2015 48.123 46.5397ZM56.4404 94.2453C61.4293 94.2453 66.4181 94.2453 71.407 94.2453C71.7932 94.2623 72.1704 94.1259 72.4566 93.8659C72.7427 93.606 72.9146 93.2434 72.9348 92.8572C72.9435 92.471 72.8014 92.0966 72.5387 91.8135C72.276 91.5303 71.9134 91.3606 71.5278 91.3405C71.4031 91.3405 71.2784 91.3405 71.1381 91.3405H41.7817C41.5646 91.3365 41.3476 91.3561 41.1347 91.3989C40.8119 91.4678 40.5226 91.6457 40.3154 91.9027C40.1082 92.1597 39.9956 92.4802 39.9966 92.8104C40.0033 93.1489 40.1263 93.4748 40.3449 93.7333C40.5636 93.9918 40.8645 94.1671 41.1971 94.2297C41.3819 94.2532 41.5683 94.261 41.7544 94.2531L56.4404 94.2453ZM58.736 32.8617C59.2349 32.8617 59.7338 32.8617 60.2327 32.8617C60.3733 32.8643 60.513 32.8391 60.6438 32.7875C60.7746 32.7359 60.8939 32.659 60.995 32.5612C61.096 32.4634 61.1767 32.3466 61.2325 32.2175C61.2883 32.0884 61.3181 31.9496 61.3201 31.8089C61.3196 31.6682 61.2911 31.5289 61.2361 31.3994C61.181 31.2698 61.1007 31.1525 60.9998 31.0545C60.8988 30.9564 60.7793 30.8795 60.6483 30.8283C60.5172 30.777 60.3773 30.7525 60.2366 30.7562C59.2544 30.7562 58.2722 30.7562 57.2901 30.7562C57.011 30.7562 56.7433 30.8671 56.5459 31.0645C56.3486 31.2619 56.2377 31.5297 56.2377 31.8089C56.2377 32.0881 56.3486 32.3559 56.5459 32.5533C56.7433 32.7508 57.011 32.8617 57.2901 32.8617C57.7695 32.8695 58.2527 32.8617 58.736 32.8617Z" fill="#BA0649"/>
<path d="M14.7639 22.1429L6.90644 13.795C6.70155 14.0974 6.47764 14.3865 6.23606 14.6606C6.1155 14.8103 5.95875 14.9269 5.78062 14.9991C5.6025 15.0714 5.40889 15.0971 5.2181 15.0737C5.02731 15.0502 4.84564 14.9785 4.69027 14.8653C4.5349 14.7521 4.41096 14.6011 4.33016 14.4266C3.07125 12.3445 1.79676 10.2741 0.584617 8.18805C0.220155 7.56309 0.0254131 6.85364 0.0197208 6.13012C0.0140285 5.4066 0.197584 4.69417 0.552168 4.06354C0.906751 3.43292 1.42003 2.90604 2.04106 2.53519C2.66209 2.16434 3.36927 1.96242 4.09241 1.94948C4.86028 1.92336 5.619 2.12261 6.27504 2.52265C8.36023 3.77036 10.4493 5.01418 12.5111 6.27359C13.2906 6.74148 13.3764 7.5408 12.7372 8.19195C12.4877 8.44539 12.1954 8.65984 11.8758 8.92888C14.6041 11.7401 17.0985 14.5709 19.8346 17.2652L21.8769 15.1986C22.5473 14.5241 23.2138 13.8495 23.8959 13.1867C23.9832 13.1134 24.045 13.0142 24.0723 12.9035C24.0996 12.7927 24.0911 12.6762 24.0479 12.5706C23.6977 11.4434 23.5953 10.2537 23.7477 9.08317C23.9001 7.91263 24.3037 6.78888 24.9308 5.78896C25.5579 4.78904 26.3937 3.93659 27.3809 3.29003C28.3681 2.64347 29.4834 2.2181 30.6503 2.04306C32.2114 1.77605 33.8167 1.98528 35.2572 2.64352C36.1654 3.03343 36.3329 3.93023 35.647 4.64376C34.6843 5.62244 33.6982 6.59331 32.7394 7.56029C32.5801 7.7051 32.4628 7.8902 32.3999 8.09609C32.337 8.30199 32.3307 8.52105 32.3818 8.73021C32.4328 8.93937 32.5394 9.13088 32.6901 9.28455C32.8408 9.43823 33.0302 9.54839 33.2383 9.60342C33.464 9.66616 33.703 9.66277 33.9268 9.59365C34.1507 9.52454 34.35 9.3926 34.5011 9.21351C35.4131 8.29592 36.3226 7.38613 37.2294 6.48414C38.0946 5.62634 38.9365 5.794 39.412 6.91694C39.895 8.06678 40.1098 9.31158 40.0401 10.5569C39.9705 11.8021 39.6182 13.0152 39.0099 14.1039C38.4017 15.1927 37.5536 16.1285 36.5299 16.8404C35.5062 17.5523 34.3339 18.0216 33.1019 18.2126C31.8787 18.3809 30.6337 18.2865 29.4499 17.9358C29.3536 17.9117 29.2533 17.9086 29.1558 17.9268C29.0583 17.9449 28.9658 17.9839 28.8847 18.0411C27.7661 19.125 26.6709 20.2324 25.5679 21.3358C25.5172 21.3904 25.4783 21.4567 25.4081 21.5503L26.8931 22.6576C29.1615 24.3342 31.4142 26.0343 33.706 27.6758C35.5885 29.021 37.1475 30.7054 38.6832 32.3976C40.2188 34.0898 40.4877 36.0666 39.7121 38.1644C39.3947 39.137 38.8093 40.0002 38.0233 40.6548C37.2373 41.3094 36.2826 41.7287 35.2689 41.8646C33.2032 42.1921 31.4142 41.5254 29.8903 40.0788C27.5458 37.8099 25.3582 35.3843 23.3424 32.8187C21.9861 31.1304 20.6141 29.4694 19.1837 27.7499C19.0395 27.8785 18.9148 27.9838 18.794 28.1008C17.9326 28.9586 17.079 29.8281 16.2099 30.6781C16.1087 30.7568 16.0357 30.8663 16.002 30.99C15.9683 31.1137 15.9756 31.2451 16.0228 31.3643C16.3683 32.4916 16.4665 33.6802 16.3104 34.8489C16.1544 36.0175 15.7479 37.1387 15.1188 38.1357C14.4897 39.1328 13.6527 39.9821 12.6652 40.6257C11.6777 41.2692 10.5628 41.6918 9.39698 41.8646C7.83171 42.1146 6.22748 41.8863 4.79397 41.2096C3.91702 40.8197 3.75722 39.9268 4.43929 39.2327C5.40199 38.254 6.38807 37.2832 7.34297 36.3201C7.48629 36.2013 7.59918 36.05 7.67227 35.8787C7.74536 35.7075 7.77653 35.5213 7.76319 35.3355C7.74985 35.1498 7.69238 34.97 7.59556 34.8109C7.49875 34.6519 7.36538 34.5183 7.20655 34.4212C6.95731 34.255 6.6551 34.1877 6.35891 34.2324C6.06271 34.2771 5.7938 34.4306 5.60466 34.663C4.68484 35.5754 3.77281 36.4916 2.87638 37.3923C1.97994 38.293 1.16535 38.0942 0.689851 36.979C0.204151 35.8315 -0.0142173 34.5884 0.0512757 33.3439C0.116769 32.0994 0.464407 30.8862 1.06787 29.796C1.67134 28.7058 2.51482 27.7672 3.53447 27.0513C4.55411 26.3354 5.72319 25.8609 6.95321 25.6638C8.17515 25.4869 9.42088 25.576 10.6052 25.9251C10.693 25.9523 10.7856 25.9607 10.8769 25.95C10.9681 25.9393 11.0562 25.9095 11.1353 25.8627C12.3046 24.693 13.4738 23.5232 14.6431 22.3535C14.6891 22.2868 14.7296 22.2164 14.7639 22.1429ZM32.7394 4.42931L32.6381 4.28894C32.4615 4.25599 32.2832 4.23256 32.1041 4.21876C31.1099 4.18324 30.1229 4.39907 29.2342 4.84629C28.3455 5.29351 27.5839 5.95769 27.0197 6.7774C26.4556 7.59711 26.1072 8.54588 26.0067 9.53599C25.9062 10.5261 26.0569 11.5256 26.4449 12.442C26.7762 13.2218 26.7138 13.5532 26.1097 14.1576L12.2812 27.9799C11.6381 28.6233 11.3341 28.6817 10.4922 28.3308C9.68901 27.9933 8.82119 27.8374 7.95081 27.8745C7.08042 27.9115 6.22897 28.1406 5.45736 28.5451C4.68575 28.9497 4.01304 29.5199 3.48735 30.2149C2.96166 30.9098 2.59598 31.7124 2.41647 32.5653C2.24566 33.2317 2.23497 33.9292 2.38529 34.6006C2.56847 34.429 2.69709 34.3198 2.81791 34.2107C3.29341 33.7389 3.74943 33.2437 4.25221 32.8031C4.92403 32.2275 5.78954 31.929 6.67323 31.9682C7.55691 32.0074 8.39261 32.3813 9.01085 33.0142C9.6291 33.6471 9.9836 34.4915 10.0025 35.3762C10.0213 36.2609 9.70316 37.1197 9.11246 37.7784C8.65254 38.2852 8.14976 38.7531 7.67036 39.2444C7.57682 39.338 7.49887 39.4394 7.36246 39.5992C7.56889 39.6356 7.77702 39.6617 7.98606 39.6772C8.97991 39.7121 9.96649 39.4957 10.8547 39.0482C11.7428 38.6007 12.5039 37.9365 13.0676 37.1169C13.6312 36.2973 13.9793 35.3488 14.0796 34.359C14.1799 33.3692 14.0292 32.3701 13.6414 31.454C13.3023 30.643 13.3647 30.3233 13.9844 29.6994L27.8012 15.8771C28.417 15.2571 28.7444 15.1947 29.5551 15.5379C30.3602 15.8804 31.2314 16.0395 32.1055 16.0037C32.9797 15.9679 33.835 15.7381 34.6094 15.331C35.3839 14.9238 36.0581 14.3495 36.5834 13.6495C37.1087 12.9496 37.4718 12.1416 37.6464 11.2839C37.7414 10.646 37.7948 10.0026 37.8062 9.35778L37.6347 9.31099C37.5139 9.42406 37.3892 9.53324 37.2723 9.64631C36.7929 10.1181 36.3368 10.6133 35.8341 11.0539C35.1658 11.6276 34.3052 11.9269 33.4253 11.8916C32.5454 11.8563 31.7115 11.489 31.0913 10.8636C30.4711 10.2382 30.1106 9.40112 30.0823 8.52063C30.054 7.64014 30.36 6.78159 30.9387 6.11762C31.4922 5.51326 32.1353 4.99078 32.7394 4.42931ZM24.6403 30.7288C24.6734 30.7918 24.7098 30.8529 24.7494 30.912C26.8658 33.5322 29.0094 36.1641 31.5117 38.4568C31.8506 38.777 32.2323 39.0486 32.6459 39.2639C33.3794 39.6626 34.2325 39.7819 35.0472 39.5998C35.8619 39.4178 36.5832 38.9466 37.0774 38.2735C37.5677 37.6192 37.816 36.8149 37.7797 35.9979C37.7435 35.1809 37.425 34.4018 36.8786 33.7935C34.5167 31.1304 31.7221 28.9742 28.8146 26.9505C28.7553 26.9163 28.6881 26.8983 28.6197 26.8983C28.5513 26.8983 28.4841 26.9163 28.4248 26.9505C27.162 28.21 25.907 29.4655 24.6403 30.7288ZM5.65143 12.1651C5.77595 11.9605 5.91672 11.7662 6.07237 11.5842C6.72716 10.9252 7.35856 10.9408 8.02114 11.6232C10.804 14.5904 13.6063 17.5459 16.3697 20.4897L18.1197 18.7351C17.9794 18.6104 17.7806 18.4622 17.613 18.2828C14.9237 15.4521 12.2383 12.607 9.55678 9.74769C9.43943 9.63732 9.34683 9.50329 9.28512 9.35446C9.2234 9.20563 9.19396 9.04539 9.19875 8.88433C9.20354 8.72327 9.24244 8.56506 9.3129 8.42016C9.38335 8.27526 9.48375 8.14698 9.60745 8.04378C9.80965 7.86467 10.0246 7.70048 10.2505 7.55249L9.97381 7.37703C8.33295 6.39056 6.69987 5.39239 5.04341 4.42931C4.69586 4.22937 4.29144 4.15147 3.89452 4.20799C3.4976 4.26452 3.13097 4.45222 2.85299 4.74124C2.55793 5.02397 2.36727 5.39833 2.31206 5.80333C2.25686 6.20832 2.34037 6.62008 2.54898 6.97153C2.84909 7.5252 3.18039 8.05158 3.50778 8.57796L5.65143 12.1651ZM23.814 23.2425L20.8402 26.159L23.1125 28.9196L26.6592 25.3441L23.814 23.2425Z" fill="#BA0649"/>
<path d="M13.9221 9.52173H22.7227L22.9371 12.2199C22.8085 12.2199 22.6604 12.2472 22.5123 12.2472C20.5635 12.2472 18.6459 12.2472 16.7127 12.2472C16.4607 12.2347 16.2215 12.1323 16.0384 11.9587C15.294 11.2139 14.5846 10.4341 13.8636 9.666L13.9221 9.52173Z" fill="#BA0649"/>
<path d="M10.6754 24.9311L7.96655 24.6074V16.2244C8.2082 16.4934 8.35631 16.6845 8.55119 16.8716C9.19038 17.5501 9.84128 18.2246 10.4727 18.9147C10.6009 19.0416 10.6832 19.2076 10.7065 19.3865C10.7065 21.1801 10.7065 22.9737 10.7065 24.7634C10.7034 24.8204 10.6929 24.8767 10.6754 24.9311Z" fill="#BA0649"/>
<path d="M56.4521 67.1737C56.142 67.1737 55.8446 67.0505 55.6253 66.8311C55.406 66.6118 55.2828 66.3142 55.2828 66.004C55.2846 65.8468 55.3174 65.6915 55.3791 65.547C55.4409 65.4024 55.5306 65.2715 55.6429 65.1616C55.7553 65.0517 55.8882 64.965 56.0341 64.9065C56.18 64.848 56.3359 64.8188 56.493 64.8206C56.6502 64.8224 56.8054 64.8552 56.9499 64.917C57.0944 64.9788 57.2253 65.0685 57.3351 65.1809C57.445 65.2933 57.5316 65.4263 57.5901 65.5722C57.6486 65.7181 57.6777 65.8741 57.6759 66.0313C57.6725 66.1873 57.6378 66.341 57.5741 66.4834C57.5103 66.6259 57.4187 66.7541 57.3047 66.8605C57.1906 66.967 57.0565 67.0495 56.91 67.1033C56.7636 67.1571 56.6079 67.1811 56.4521 67.1737Z" fill="#BA0649"/>
<path d="M56.4482 61.485C56.2184 61.4758 55.9963 61.3989 55.8099 61.264C55.6235 61.1292 55.481 60.9423 55.4003 60.7268C55.3195 60.5113 55.3041 60.2767 55.356 60.0525C55.4078 59.8283 55.5246 59.6244 55.6918 59.4663C55.859 59.3081 56.069 59.2029 56.2957 59.1636C56.5224 59.1244 56.7556 59.1529 56.9662 59.2456C57.1767 59.3383 57.3553 59.4911 57.4794 59.6848C57.6036 59.8786 57.6679 60.1047 57.6643 60.3348C57.6618 60.4908 57.6281 60.6447 57.5653 60.7874C57.5025 60.9302 57.4118 61.059 57.2985 61.1662C57.1851 61.2734 57.0516 61.3568 56.9055 61.4115C56.7595 61.4663 56.604 61.4913 56.4482 61.485Z" fill="#BA0649"/>
</svg>
