<svg width="32" height="32" viewBox="0 0 32 32" fill="none" xmlns="http://www.w3.org/2000/svg">
<path fill-rule="evenodd" clip-rule="evenodd" d="M27.3359 4.65055C25.8599 3.17193 24.1037 1.99952 22.1691 1.20124C20.2346 0.402964 18.1601 -0.00531764 16.0658 5.229e-05C7.28391 5.229e-05 0.13728 7.11293 0.13376 15.8554C0.130952 18.6383 0.86533 21.3727 2.26286 23.7831L0 32L8.44803 29.7949C10.784 31.0611 13.4014 31.7246 16.0613 31.7247H16.0679C24.8488 31.7247 31.9964 24.6114 31.9999 15.8684C32.0063 13.7845 31.5973 11.7201 30.7967 9.79457C29.9962 7.86903 28.8199 6.12064 27.3359 4.65055ZM16.0658 29.0471H16.0603C13.6893 29.0469 11.362 28.4124 9.322 27.2099L8.83724 26.9261L3.82525 28.2329L5.16335 23.3692L4.84806 22.8687C3.52216 20.7681 2.82031 18.3371 2.82355 15.8564C2.82657 8.58986 8.76684 2.67814 16.0709 2.67814C19.5833 2.67987 22.9511 4.07019 25.4336 6.54326C27.916 9.01634 29.3097 12.3696 29.3081 15.8654C29.3046 23.1324 23.3648 29.0451 16.0658 29.0451V29.0471ZM23.3291 19.1761C22.9314 18.9759 20.9742 18.0195 20.6092 17.8869C20.2441 17.7542 19.9786 17.6867 19.7136 18.087C19.4486 18.4874 18.6852 19.3758 18.4529 19.6385C18.2206 19.9013 17.9888 19.9358 17.5905 19.7386C17.1922 19.5415 15.91 19.1215 14.3893 17.7717C13.2061 16.7207 12.407 15.424 12.1767 15.0276C11.9464 14.6312 12.1767 14.437 12.3512 14.2188C12.7822 13.6863 13.2136 13.1277 13.3464 12.8635C13.4791 12.5992 13.4128 12.3675 13.3132 12.1693C13.2136 11.9711 12.4176 10.0212 12.0857 9.22748C11.7629 8.45523 11.435 8.55933 11.1901 8.54732C10.9583 8.53581 10.6928 8.53331 10.4273 8.53331C10.1618 8.53331 9.73032 8.6334 9.36575 9.02928C9.00117 9.42517 7.97232 10.3846 7.97232 12.3325C7.97232 14.2804 9.39894 16.1667 9.59807 16.4314C9.7972 16.6962 12.405 20.6976 16.3982 22.4137C17.1393 22.7318 17.8968 23.0103 18.6676 23.248C19.6231 23.5483 20.489 23.5073 21.1749 23.4052C21.9397 23.2916 23.5303 22.4468 23.8622 21.5214C24.194 20.596 24.194 19.8027 24.0945 19.6375C23.9949 19.4724 23.7294 19.3728 23.3311 19.1746L23.3291 19.1761Z" fill="#BA0649"/>
</svg>
